<svg xmlns="http://www.w3.org/2000/svg" viewBox="0 0 129.89 95.2"><title>connect</title><g id="Layer_2" data-name="Layer 2"><g id="badges"><g id="_4" data-name="4"><path d="M8.86,23.73v0a8.94,8.94,0,0,0,.54.75A9,9,0,0,1,8.86,23.73ZM48.35,35.79s0-.05,0-.08h0S48.35,35.76,48.35,35.79Zm1.22,3,.1-.19.08-.11Zm21.65,51.5a8.93,8.93,0,0,0,.55.75,9.06,9.06,0,0,1-.55-.75v0Zm-1.28-4.57h0v0S69.94,85.76,69.94,85.75ZM129.59.37a1.27,1.27,0,0,1-.15-.37,1.29,1.29,0,0,0,.16.37,1.29,1.29,0,0,0,.3.32A1.31,1.31,0,0,1,129.59.37Z" style="fill:#fff"/><polygon points="65.58 63.7 68.95 58.46 69.54 69.99 66.34 75.3 65.58 63.7" style="fill:#fff"/><polygon points="66.27 63.88 66.88 73.11 68.86 69.82 68.38 60.59 66.27 63.88" style="fill:#fff"/><polygon points="66.4 79.89 69.77 73.81 70.2 84.89 67 89.43 66.4 79.89" style="fill:#fff"/><polygon points="69.52 84.69 69.19 76.25 67.09 80.05 67.56 87.47 69.52 84.69" style="fill:#fff"/><path d="M11.29,44.66a1.79,1.79,0,0,1-.89-1.33,1.85,1.85,0,0,1,.23-1.21,1.47,1.47,0,0,1,.89-.69L14,39.87a1.41,1.41,0,0,1,.9-.53h.2a1.76,1.76,0,0,1,.46,3.39L13.12,44.2a1.43,1.43,0,0,1-1,.62h-.06l-.66.4Z" style="fill:#fff"/><path d="M15.14,42.09h.15A1.07,1.07,0,0,0,15,40a.77.77,0,0,0-.53.37l-2.69,1.7h0a1,1,0,0,0-.69,1.16,1,1,0,0,0,.79.91v0l0,0h.15a.78.78,0,0,0,.57-.44l2.53-1.55Z" style="fill:#fff"/><polygon points="12.79 42.82 14.08 42.03 17.01 41.73 16.08 43.78 13.21 44.07 12.79 42.82" style="fill:#fff"/><polygon points="15.63 43.14 15.91 42.52 14.3 42.69 13.14 43.39 15.45 43.16 15.63 43.14" style="fill:#fff"/><polygon points="17.33 24.82 21.76 18.28 34.95 21.97 30.14 29.53 17.33 24.82" style="fill:#fff"/><polygon points="33.89 22.38 22.05 19.07 18.38 24.48 29.86 28.71 33.89 22.38" style="fill:#fff"/><path d="M60.14,30.89,51.07,37c-3.76,3-3.26,9.87,1.11,15.39S63.15,60,66.91,57L76,50.89Z" style="fill:#383838"/><ellipse cx="106.25" cy="15.77" rx="3.89" ry="2.2" transform="translate(8.48 60.26) rotate(-32.91)" style="fill:#383838"/><polygon points="49.88 38.73 49.6 38.31 59.29 31.91 59.57 32.32 58.77 32.85 49.88 38.73" style="fill:#fff"/><polygon points="49.08 40.46 48.8 40.04 58.3 33.77 58.43 33.98 58.68 33.97 58.68 34.11 58.08 34.5 49.08 40.46" style="fill:#fff"/><polygon points="48.77 41.86 48.5 41.44 57.95 35.19 58.22 35.62 57.82 35.88 48.77 41.86" style="fill:#fff"/><polygon points="48.69 43.12 48.41 42.7 57.85 36.47 58.12 36.88 57.75 37.13 48.69 43.12" style="fill:#fff"/><polygon points="48.75 44.29 48.47 43.87 57.89 37.64 58.17 38.05 57.82 38.28 48.75 44.29" style="fill:#fff"/><polygon points="48.89 45.38 48.62 44.96 58.05 38.73 58.33 39.15 57.98 39.37 48.89 45.38" style="fill:#fff"/><polygon points="49.13 46.42 48.85 46 58.29 39.78 58.42 39.98 58.67 39.98 58.67 40.12 58.23 40.41 49.13 46.42" style="fill:#fff"/><polygon points="49.44 47.43 49.16 47.01 58.58 40.78 58.86 41.2 58.55 41.41 49.44 47.43" style="fill:#fff"/><polygon points="49.8 48.39 49.52 47.97 58.96 41.74 59.23 42.16 58.92 42.36 49.8 48.39" style="fill:#fff"/><polygon points="50.22 49.32 49.94 48.9 59.39 42.66 59.65 43.09 59.35 43.28 50.22 49.32" style="fill:#fff"/><polygon points="50.69 50.21 50.41 49.79 59.85 43.55 60.13 43.97 59.82 44.17 50.69 50.21" style="fill:#fff"/><polygon points="51.21 51.07 50.93 50.65 60.36 44.41 60.65 44.83 60.34 45.03 51.21 51.07" style="fill:#fff"/><polygon points="51.76 51.91 51.48 51.49 60.94 45.24 61.22 45.65 60.91 45.86 51.76 51.91" style="fill:#fff"/><polygon points="52.37 52.7 52.09 52.28 61.56 46.03 61.83 46.44 61.52 46.65 52.37 52.7" style="fill:#fff"/><polygon points="53.02 53.48 52.74 53.06 62.22 46.8 62.5 47.21 62.18 47.42 53.02 53.48" style="fill:#fff"/><polygon points="53.72 54.22 53.45 53.8 62.92 47.53 63.2 47.95 62.88 48.16 53.72 54.22" style="fill:#fff"/><polygon points="54.47 54.93 54.19 54.51 63.68 48.23 63.97 48.64 63.64 48.86 54.47 54.93" style="fill:#fff"/><rect x="54.18" y="51.99" width="11.4" height="0.5" transform="translate(-18.87 41.57) rotate(-33.39)" style="fill:#fff"/><rect x="55.03" y="52.63" width="11.43" height="0.5" transform="matrix(0.84, -0.55, 0.55, 0.84, -19.07, 42.14)" style="fill:#fff"/><polygon points="57.04 56.83 56.77 56.41 66.32 50.1 66.59 50.52 66.23 50.75 57.04 56.83" style="fill:#fff"/><polygon points="58.03 57.37 57.76 56.96 67.35 50.62 67.62 51.04 67.24 51.29 58.03 57.37" style="fill:#fff"/><polygon points="59.13 57.85 58.85 57.44 68.47 51.08 68.74 51.5 59.13 57.85" style="fill:#fff"/><polygon points="60.33 58.25 60.06 57.83 69.73 51.45 70 51.87 69.51 52.19 60.33 58.25" style="fill:#fff"/><polygon points="61.73 58.54 61.46 58.12 71.24 51.65 71.52 52.06 71.01 52.41 61.73 58.54" style="fill:#fff"/><polygon points="63.46 58.6 63.19 58.18 73.33 51.48 73.6 51.9 63.46 58.6" style="fill:#fff"/><path d="M72.91,52c-3.76.55-8.28-1.73-11.52-5.82-4.3-5.43-4.82-12.22-1.14-15.13a6.11,6.11,0,0,1,2.95-1.24c3.76-.55,8.28,1.73,11.52,5.82C79,41,79.53,47.83,75.86,50.74A6.11,6.11,0,0,1,72.91,52Z" style="fill:#fff"/><path d="M63.22,30h0c3.64-.54,8.2,1.78,11.35,5.75a15.78,15.78,0,0,1,3.53,8.45c.2,2.78-.64,5.06-2.35,6.42a5.93,5.93,0,0,1-2.86,1.21c-3.64.54-8.2-1.78-11.35-5.75A15.79,15.79,0,0,1,58,37.6c-.2-2.78.64-5.06,2.36-6.42A5.93,5.93,0,0,1,63.22,30Zm-.05-.37a6.31,6.31,0,0,0-3,1.28c-3.76,3-3.26,9.87,1.11,15.39,3.35,4.23,8,6.43,11.69,5.89a6.31,6.31,0,0,0,3-1.28c3.76-3,3.26-9.87-1.11-15.39-3.35-4.23-8-6.43-11.69-5.89Z" style="fill:#383838"/><path d="M73.46,51.69,73,52l-.13,0a8,8,0,0,1-1.8.05,8.66,8.66,0,0,1-1.47-.24,9.59,9.59,0,0,1-1.25-.37A9.82,9.82,0,0,1,67.27,51q-.51-.23-1-.53c-.31-.18-.62-.37-.93-.59s-.59-.41-.87-.63-.53-.43-.8-.67-.51-.45-.76-.7-.47-.48-.7-.74-.45-.5-.66-.77l-.14-.18c-.16-.2-.32-.41-.47-.62s-.39-.55-.57-.83-.36-.57-.52-.86-.33-.59-.47-.89-.3-.62-.43-.92-.26-.64-.36-1-.22-.67-.31-1-.18-.7-.24-1A10.37,10.37,0,0,1,57.86,38a9.63,9.63,0,0,1-.06-1.16,9.74,9.74,0,0,1,.08-1.26,7.83,7.83,0,0,1,.3-1.4A6.63,6.63,0,0,1,59,32.4l.43-.28a6.25,6.25,0,0,0-1,1.87,7.8,7.8,0,0,0-.34,1.43,9.55,9.55,0,0,0-.1,1.27c0,.3,0,.61,0,.93l0,.24a10.17,10.17,0,0,0,.16,1.09,9.75,9.75,0,0,0,.24,1c.08.33.18.66.3,1s.24.64.37,1,.27.62.43.93.3.59.47.89.34.57.51.86.37.55.57.82l.46.61a1.92,1.92,0,0,0,.16.18,10,10,0,0,0,.66.77c.22.26.46.5.7.74s.5.48.76.7.53.46.81.66.58.43.87.63.63.4.95.58.68.37,1,.52a11,11,0,0,0,1.12.46,11.39,11.39,0,0,0,1.26.37,8.55,8.55,0,0,0,1.51.2,6.55,6.55,0,0,0,1.51-.05A5.3,5.3,0,0,0,73.46,51.69Z" style="fill:#fff"/><path d="M72.89,51.8a6.55,6.55,0,0,1-1.51.05,8.55,8.55,0,0,1-1.51-.2,11.39,11.39,0,0,1-1.26-.37,11,11,0,0,1-1.12-.46c-.34-.16-.69-.33-1-.52s-.64-.37-.95-.58-.59-.41-.87-.63-.55-.43-.81-.66-.51-.45-.76-.7-.48-.48-.7-.74a10,10,0,0,1-.66-.77,1.92,1.92,0,0,1-.16-.18l-.46-.61c-.2-.27-.39-.55-.57-.82s-.35-.57-.51-.86-.33-.59-.47-.89-.3-.62-.43-.93-.26-.64-.37-1-.22-.67-.3-1a9.75,9.75,0,0,1-.24-1A10.17,10.17,0,0,1,58,37.85l0-.24c0-.32,0-.62,0-.93a9.55,9.55,0,0,1,.1-1.27A7.8,7.8,0,0,1,58.43,34a6.25,6.25,0,0,1,1-1.87L59,32.4l-.37.24a6.79,6.79,0,0,0-.69,1.66,7.53,7.53,0,0,0-.26,1.38,8.35,8.35,0,0,0-.07,1.24,11.27,11.27,0,0,0,.07,1.16,10.35,10.35,0,0,0,.16,1.09q.1.52.24,1c.09.33.2.66.32,1s.24.65.37,1,.27.62.43.92.3.59.47.89.34.57.52.86.37.56.57.83l.48.63.13.16c.21.27.43.53.66.77s.47.5.7.74.5.49.76.7.53.46.8.67.57.44.87.64.62.41.93.59.67.37,1,.53.74.34,1.1.47a10.72,10.72,0,0,0,1.24.39,9,9,0,0,0,1.43.26,7.45,7.45,0,0,0,1.82,0L73,52l.42-.28A5.3,5.3,0,0,1,72.89,51.8Z" style="fill:#383838"/><path d="M69,58.91a8.42,8.42,0,0,1-2.53-1.67l-.95.62a5.71,5.71,0,0,0,2.77,1.89,1.7,1.7,0,0,0,.86-.08,1.4,1.4,0,0,0,.77-.82A2.46,2.46,0,0,1,69,58.91Z" style="fill:#383838"/><path d="M69.59,58.72a2,2,0,0,1-.6,0,7.17,7.17,0,0,1-2.25-1.47l3.15-2.06a8.34,8.34,0,0,1-.14,3.5Z" style="fill:#fff"/><path d="M69.75,55.52a7.88,7.88,0,0,1-.13,3h-.05a1.83,1.83,0,0,1-.54,0c-.12,0-.6-.16-2-1.27l2.69-1.76Zm.29-.63L66.8,57l-.36.24A8.42,8.42,0,0,0,69,58.91a2.21,2.21,0,0,0,.65,0l.27-.05a9,9,0,0,0,.15-4Z" style="fill:#383838"/><path d="M69.67,85.73a2.58,2.58,0,0,0,1.49-.22c.51-.36-1.09-25.94-1.09-25.94l-1.74.17Z" style="fill:#383838"/><path d="M58.11,59.54h-.18c-1.5-.12-2.18-3.3-2.29-3.86l.75-.91,3,.77a9.18,9.18,0,0,1-.45,3.21C58.69,59.23,58.43,59.5,58.11,59.54Z" style="fill:#fff"/><path d="M56.45,55l2.71.71a8.65,8.65,0,0,1-.43,3c-.18.41-.4.63-.65.67h-.13c-1.17-.09-1.9-2.55-2.11-3.62l.62-.75Zm-.14-.42h0l-.87,1.06s.68,4,2.48,4.09h.22a1.31,1.31,0,0,0,.94-.89,9.8,9.8,0,0,0,.46-3.43l-3.21-.84Z" style="fill:#383838"/><path d="M59.07,58.84c-.24.55-.61.94-1.15.9s-1.22-.68-1.61-1.42a10.66,10.66,0,0,1-.87-2.67l.87-1.06c.28,1.36.93,3.85,1.88,4.11A4.06,4.06,0,0,0,59.07,58.84Z" style="fill:#383838"/><polygon points="31.61 94.58 37.17 84.45 42.01 91.08 31.61 94.58" style="fill:#383838"/><path d="M40.36,86,57,58.62l1.48.86L41.79,87.17a.8.8,0,0,1-1,.15C40.18,87,40.36,86,40.36,86Z" style="fill:#383838"/><path d="M41.61,91c-1.18.17-2.69-.72-3.67-2.18A5.33,5.33,0,0,1,37,86a2.21,2.21,0,0,1,.84-2,1.69,1.69,0,0,1,.71-.27c1.18-.17,2.69.72,3.67,2.18a5.33,5.33,0,0,1,1,2.82,2.2,2.2,0,0,1-.84,2A1.71,1.71,0,0,1,41.61,91Z" style="fill:#fff"/><path d="M38.55,83.94h0c1.11-.16,2.54.7,3.49,2.1,1.16,1.73,1.24,3.8.17,4.52a1.51,1.51,0,0,1-.63.24c-1.11.16-2.54-.7-3.49-2.1-1.16-1.73-1.24-3.8-.17-4.52a1.53,1.53,0,0,1,.63-.24Zm-.05-.37a1.89,1.89,0,0,0-.79.3c-1.26.85-1.23,3.1.07,5,1.06,1.57,2.62,2.44,3.85,2.26a1.89,1.89,0,0,0,.79-.3c1.26-.85,1.23-3.1-.07-5-1.06-1.57-2.62-2.44-3.85-2.26Z" style="fill:#383838"/><polygon points="71.44 83.87 71.13 75 76.86 73.34 77.15 83.03 71.44 83.87" style="fill:#fff"/><path d="M76.69,73.59,77,82.87l-5.34.79-.3-8.51,5.37-1.55ZM77,73.1l-6.11,1.77.33,9.22,6.08-.89L77,73.1Z" style="fill:#383838"/><polygon points="70.27 59.68 75.25 57.26 75.7 66.84 70.79 68.54 70.27 59.68" style="fill:#fff"/><path d="M75.07,57.55l.43,9.16L71,68.28l-.5-8.49,4.61-2.24Zm.34-.58-5.34,2.59.54,9.23L75.89,67l-.47-10Z" style="fill:#383838"/><polygon points="66.45 63.93 68.23 61.17 68.67 69.77 67.02 72.51 66.45 63.93" style="fill:#fff"/><path d="M68.07,61.75l.41,8-1.31,2.18L66.64,64l1.43-2.22Zm.31-1.17-2.12,3.29.61,9.23,2-3.29-.47-9.23Z" style="fill:#383838"/><polygon points="67.27 80.09 69.03 76.92 69.33 84.63 67.71 86.94 67.27 80.09" style="fill:#fff"/><path d="M68.87,77.59l.28,7L67.86,86.4l-.4-6.27,1.41-2.54Zm.32-1.34L67.09,80l.47,7.43,2-2.78-.33-8.44Z" style="fill:#383838"/><path d="M50.3,47,49.61,48s-3.12-.62-3.77-1.31a2.34,2.34,0,0,1-.29-2l.09-.17.15-.28c.8-1,3.64-.7,3.64-.7Z" style="fill:#383838"/><path d="M50.06,46.78c-.9,0-4.1-.17-4.28-1.7a1,1,0,0,1,0-.41.69.69,0,0,1,.12-.22,2.11,2.11,0,0,1,1.4-.61,9,9,0,0,1,2,0Z" style="fill:#fff"/><path d="M47.36,44h0a8.67,8.67,0,0,1,1.78,0l.68,2.62c-1.31,0-3.72-.37-3.86-1.53a.78.78,0,0,1,0-.34.54.54,0,0,1,.1-.17A2,2,0,0,1,47.36,44Zm-.05-.37a2.33,2.33,0,0,0-1.51.68.88.88,0,0,0-.15.28,1.15,1.15,0,0,0,0,.5c.23,2,4.71,1.86,4.71,1.86l-.87-3.34a9.29,9.29,0,0,0-2.13,0Z" style="fill:#383838"/><path d="M49.65,38.31c-.57-.77-1.52-2.35-.95-3a.55.55,0,0,1,.35-.19c.71-.1,2,.71,2.68,1.27a6.16,6.16,0,0,0-2.09,1.94Z" style="fill:#fff"/><path d="M49.08,35.29h0a4.39,4.39,0,0,1,2.33,1.07,6.29,6.29,0,0,0-.56.4A6.35,6.35,0,0,0,49.65,38c-.56-.82-1.23-2.09-.81-2.58a.36.36,0,0,1,.24-.12ZM49,34.92a.74.74,0,0,0-.47.25c-.86,1,1.1,3.46,1.1,3.46h0A6,6,0,0,1,51.08,37a5.76,5.76,0,0,1,1-.64c-.23-.2-2-1.64-3-1.49Z" style="fill:#383838"/><path d="M49.65,38.31c-.57-.77-1.52-2.35-.95-3a.55.55,0,0,1,.35-.19c.71-.1,2,.71,2.68,1.27a6.16,6.16,0,0,0-2.09,1.94Z" style="fill:#fff"/><path d="M49.08,35.29h0a4.39,4.39,0,0,1,2.33,1.07,6.29,6.29,0,0,0-.56.4A6.35,6.35,0,0,0,49.65,38c-.56-.82-1.23-2.09-.81-2.58a.36.36,0,0,1,.24-.12ZM49,34.92a.74.74,0,0,0-.47.25c-.86,1,1.1,3.46,1.1,3.46h0A6,6,0,0,1,51.08,37a5.76,5.76,0,0,1,1-.64c-.23-.2-2-1.64-3-1.49Z" style="fill:#383838"/><path d="M49.67,38.63h0l-.46.89s-.47-.5-1.14-1.29a2.24,2.24,0,0,1-.29-2l.72-1C47.82,36.33,49.67,38.63,49.67,38.63Z" style="fill:#383838"/><path d="M48.51,35.77,48,35.6l.31-.44.31.21a.71.71,0,0,0-.07.15l0,.06Z" style="fill:#383838"/><path d="M45.84,46.74,15.38,43.69,16,42.23,45.49,45.1A2,2,0,0,0,45.84,46.74Z" style="fill:#383838"/><ellipse cx="11.9" cy="43.11" rx="0.85" ry="1.05" transform="translate(-6.15 2.19) rotate(-8.37)" style="fill:#383838"/><polygon points="11.86 44.18 15.16 42.16 14.66 40.24 11.46 42.26 11.86 44.18" style="fill:#383838"/><polygon points="15.63 43.14 15.45 43.16 13.14 43.39 14.3 42.69 15.91 42.52 15.63 43.14" style="fill:#383838"/><ellipse cx="15.13" cy="41.04" rx="0.66" ry="0.86" transform="translate(-5.81 2.64) rotate(-8.37)" style="fill:#fff"/><path d="M15,40.37c.26,0,.52.24.57.6s-.12.7-.37.74-.52-.24-.57-.6.12-.7.37-.74ZM15,40a1.07,1.07,0,0,0,.31,2.08A1.07,1.07,0,0,0,15,40Z" style="fill:#383838"/><ellipse cx="49.1" cy="24.61" rx="0.85" ry="1.05" transform="translate(-3.06 7.41) rotate(-8.37)" style="fill:#383838"/><polygon points="48.66 23.76 51.86 21.74 52.36 23.66 49.06 25.68 48.66 23.76" style="fill:#383838"/><polygon points="52.83 24.64 52.65 24.66 50.34 24.89 51.5 24.19 53.11 24.02 52.83 24.64" style="fill:#383838"/><ellipse cx="52.34" cy="22.54" rx="0.66" ry="0.86" transform="translate(-2.73 7.87) rotate(-8.39)" style="fill:#fff"/><path d="M52.24,21.87c.26,0,.52.24.57.6s-.12.7-.37.74-.52-.24-.57-.6.12-.7.37-.74Zm-.05-.37a1.07,1.07,0,1,0,1,.91,1,1,0,0,0-1-.91Z" style="fill:#383838"/><path d="M48.33,35.5l-.55.77L16.32,24.91a4.4,4.4,0,0,0,.16-1.12Z" style="fill:#383838"/><path d="M14.12,26.76c-1.65.24-3.75-1-5.1-3.13C7.34,21,7.31,18,9,17a2.36,2.36,0,0,1,1-.35c1.65-.24,3.75,1,5.1,3.13a7.44,7.44,0,0,1,1.28,3.94,3.07,3.07,0,0,1-1.22,2.71A2.38,2.38,0,0,1,14.12,26.76Z" style="fill:#fff"/><path d="M9.94,16.81h0c1.58-.23,3.6,1,4.92,3,1.63,2.51,1.68,5.38.11,6.4a2.19,2.19,0,0,1-.88.33c-1.58.23-3.61-1-4.92-3C7.55,21,7.5,18.15,9.07,17.13a2.18,2.18,0,0,1,.88-.33Zm-.05-.37a2.56,2.56,0,0,0-1,.38C7.12,18,7.12,21,8.86,23.73c1.43,2.21,3.59,3.46,5.28,3.21a2.56,2.56,0,0,0,1-.38c1.74-1.13,1.74-4.22,0-6.91-1.43-2.21-3.59-3.46-5.28-3.21Z" style="fill:#383838"/><path d="M14.12,26.76c-1.65.24-3.75-1-5.1-3.13C7.34,21,7.31,18,9,17a2.36,2.36,0,0,1,1-.35c1.65-.24,3.75,1,5.1,3.13a7.44,7.44,0,0,1,1.28,3.94,3.07,3.07,0,0,1-1.22,2.71A2.38,2.38,0,0,1,14.12,26.76Z" style="fill:#fff"/><path d="M9.94,16.81h0c1.58-.23,3.6,1,4.92,3,1.63,2.51,1.68,5.38.11,6.4a2.19,2.19,0,0,1-.88.33c-1.58.23-3.61-1-4.92-3C7.55,21,7.5,18.15,9.07,17.13a2.18,2.18,0,0,1,.88-.33Zm-.05-.37a2.56,2.56,0,0,0-1,.38C7.12,18,7.12,21,8.86,23.73c1.43,2.21,3.59,3.46,5.28,3.21a2.56,2.56,0,0,0,1-.38c1.74-1.13,1.74-4.22,0-6.91-1.43-2.21-3.59-3.46-5.28-3.21Z" style="fill:#383838"/><path d="M13.62,27,0,28.61,7.92,17.93c-.7,1.47-.38,3.75.94,5.8A6.46,6.46,0,0,0,13.62,27Z" style="fill:#383838"/><path d="M76.47,93.35c-1.65.24-3.75-1-5.1-3.13-1.68-2.6-1.71-5.59-.05-6.66a2.38,2.38,0,0,1,1-.35c1.65-.24,3.75,1,5.1,3.13a7.44,7.44,0,0,1,1.28,3.94A3.07,3.07,0,0,1,77.42,93,2.38,2.38,0,0,1,76.47,93.35Z" style="fill:#fff"/><path d="M72.3,83.39h0c1.58-.23,3.6,1,4.92,3a7.25,7.25,0,0,1,1.25,3.84,2.9,2.9,0,0,1-1.14,2.56,2.2,2.2,0,0,1-.88.33c-1.58.23-3.61-1-4.92-3-1.63-2.51-1.68-5.38-.11-6.4a2.19,2.19,0,0,1,.88-.33ZM72.24,83a2.53,2.53,0,0,0-1,.38c-1.74,1.13-1.74,4.22,0,6.91,1.43,2.21,3.59,3.46,5.28,3.21a2.57,2.57,0,0,0,1-.38c1.74-1.13,1.74-4.22,0-6.91C76.1,84,73.94,82.78,72.24,83Z" style="fill:#383838"/><path d="M76.47,93.35c-1.65.24-3.75-1-5.1-3.13-1.68-2.6-1.71-5.59-.05-6.66a2.38,2.38,0,0,1,1-.35c1.65-.24,3.75,1,5.1,3.13a7.44,7.44,0,0,1,1.28,3.94A3.07,3.07,0,0,1,77.42,93,2.38,2.38,0,0,1,76.47,93.35Z" style="fill:#fff"/><path d="M72.3,83.39h0c1.58-.23,3.6,1,4.92,3a7.25,7.25,0,0,1,1.25,3.84,2.9,2.9,0,0,1-1.14,2.56,2.2,2.2,0,0,1-.88.33c-1.58.23-3.61-1-4.92-3-1.63-2.51-1.68-5.38-.11-6.4a2.19,2.19,0,0,1,.88-.33ZM72.24,83a2.53,2.53,0,0,0-1,.38c-1.74,1.13-1.74,4.22,0,6.91,1.43,2.21,3.59,3.46,5.28,3.21a2.57,2.57,0,0,0,1-.38c1.74-1.13,1.74-4.22,0-6.91C76.1,84,73.94,82.78,72.24,83Z" style="fill:#383838"/><path d="M76,93.56,62.35,95.2l7.92-10.68c-.7,1.47-.38,3.75.94,5.8A6.45,6.45,0,0,0,76,93.56Z" style="fill:#383838"/><polygon points="18.66 24.39 22.13 19.28 33.6 22.49 29.79 28.48 18.66 24.39" style="fill:#fff"/><path d="M22.21,19.49l11.1,3.1-3.6,5.66L19,24.3l3.26-4.81ZM22,19.07l-3.67,5.42,11.48,4.23,4-6.33L22,19.07Z" style="fill:#383838"/><polygon points="13.68 28.24 17.81 25.64 28.71 29.58 25.63 32.48 13.68 28.24" style="fill:#fff"/><path d="M17.83,25.85l10.54,3.81-2.77,2.61L14.1,28.19l3.73-2.34Zm0-.41-4.53,2.85,12.42,4.41,3.38-3.18L17.78,25.44Z" style="fill:#383838"/><polygon points="36.28 30.87 39.51 25.46 50.95 28.84 47.29 35.01 36.28 30.87" style="fill:#fff"/><path d="M39.6,25.68l11.07,3.27-3.46,5.83-10.66-4,3-5.1Zm-.17-.44L36,31l11.37,4.27,3.86-6.51-11.8-3.49Z" style="fill:#383838"/><polygon points="30.83 34.14 35.12 31.9 45.98 35.82 42.41 37.36 30.83 34.14" style="fill:#fff"/><path d="M35.13,32.1l10.35,3.74L42.4,37.16,31.33,34.09l3.8-2Zm0-.4-4.78,2.5,12.1,3.37,4.06-1.75L35.11,31.69Z" style="fill:#383838"/><path d="M59.39,31.59a6.11,6.11,0,0,0-.62.82l-6.39-8.26,1-.59Z" style="fill:#383838"/><path d="M75,21.17l-9.56,6.55c-3.76,3-3.26,9.87,1.11,15.39s11,7.59,14.73,4.61l9.51-6.65Z" style="fill:#383838"/><path d="M86.1,42.62l-.28.18a7.92,7.92,0,0,1-1.57-.16,8.57,8.57,0,0,1-1.31-.33h0a12.85,12.85,0,0,1-2.19-1,10.93,10.93,0,0,1-1-.57,10.64,10.64,0,0,1-.89-.62c-.28-.2-.55-.42-.82-.65s-.52-.45-.77-.7-.49-.47-.72-.72-.45-.5-.67-.76l-.36-.43-.27-.34c-.2-.27-.39-.54-.58-.82s-.37-.57-.54-.85-.34-.58-.49-.88-.3-.6-.44-.91-.27-.63-.39-.95-.23-.66-.32-1-.19-.68-.26-1-.14-.72-.19-1.07-.05-.47-.07-.71,0-.28,0-.43a10.38,10.38,0,0,1,0-1.22,9.27,9.27,0,0,1,.21-1.34h0a7.35,7.35,0,0,1,.58-1.58l.33-.22a6.56,6.56,0,0,0-.68,1.64,7.33,7.33,0,0,0-.24,1.37,8.31,8.31,0,0,0,0,1.24c0,.18,0,.35,0,.53s0,.41.06.61A10.2,10.2,0,0,0,72.41,30c.07.34.16.69.26,1s.21.66.33,1,.25.64.39,1,.28.61.43.91.32.59.49.88.34.57.54.85.38.55.58.82l.26.33c.12.15.24.3.37.45s.44.51.67.76.48.49.72.73.52.47.78.68.55.45.84.65a10.33,10.33,0,0,0,.89.61h0a9.93,9.93,0,0,0,1,.57q.53.28,1.05.51a10.13,10.13,0,0,0,1.16.43,9.81,9.81,0,0,0,1.33.32A8.31,8.31,0,0,0,86.1,42.62Z" style="fill:#fff"/><path d="M87.07,42.73a7,7,0,0,1-1.24.07l.28-.18a8.31,8.31,0,0,1-1.62-.14,9.81,9.81,0,0,1-1.33-.32A10.13,10.13,0,0,1,82,41.73q-.53-.22-1.05-.51a9.93,9.93,0,0,1-1-.57h0a10.33,10.33,0,0,1-.89-.61c-.28-.2-.57-.42-.84-.65s-.53-.45-.78-.68-.49-.48-.72-.73-.45-.49-.67-.76-.25-.3-.37-.45l-.26-.33c-.2-.27-.4-.54-.58-.82s-.37-.57-.54-.85-.34-.58-.49-.88-.3-.6-.43-.91-.28-.64-.39-1-.23-.66-.33-1-.19-.69-.26-1a10.2,10.2,0,0,1-.18-1.08q0-.3-.06-.61c0-.18,0-.36,0-.53a8.31,8.31,0,0,1,0-1.24,7.33,7.33,0,0,1,.24-1.37,6.56,6.56,0,0,1,.68-1.64l-.33.22-.3.2A7.55,7.55,0,0,0,72,25.51a8.43,8.43,0,0,0-.18,1.32,10.28,10.28,0,0,0,0,1.22,10.75,10.75,0,0,0,.1,1.13c.05.35.11.71.2,1.07s.17.68.28,1,.2.66.33,1,.24.63.39.95.28.61.44.91.31.59.49.88.34.57.53.85.38.55.58.82l.28.36.35.43c.22.26.44.51.67.76s.48.5.72.73.51.47.76.69.54.45.82.66.59.43.89.62.64.4,1,.57.69.37,1,.52.76.32,1.14.45a10.52,10.52,0,0,0,1.29.35,9.19,9.19,0,0,0,1.52.2h0a7.66,7.66,0,0,0,1.53-.07l.53-.1.49-.33A6.44,6.44,0,0,1,87.07,42.73Z" style="fill:#383838"/><polygon points="63.88 29.96 63.56 29.58 63.57 29.57 72.98 23.35 73.25 23.77 72.62 24.18 63.88 29.96" style="fill:#fff"/><polygon points="63.29 31.56 63.01 31.14 72.3 25 72.57 25.41 72.11 25.72 63.29 31.56" style="fill:#fff"/><polygon points="63.06 32.91 62.78 32.49 72.05 26.36 72.33 26.78 71.93 27.04 63.06 32.91" style="fill:#fff"/><polygon points="63.02 34.14 62.74 33.72 72.01 27.6 72.28 28.02 71.92 28.26 63.02 34.14" style="fill:#fff"/><polygon points="63.1 35.28 62.83 34.87 72.09 28.74 72.37 29.16 72.02 29.39 63.1 35.28" style="fill:#fff"/><polygon points="63.28 36.36 63 35.95 72.27 29.82 72.55 30.24 72.21 30.46 63.28 36.36" style="fill:#fff"/><polygon points="63.54 37.41 63.26 36.99 72.53 30.86 72.8 31.27 72.5 31.48 63.54 37.41" style="fill:#fff"/><polygon points="63.86 38.38 63.59 37.97 72.86 31.84 73.14 32.25 72.83 32.46 63.86 38.38" style="fill:#fff"/><polygon points="64.24 39.34 63.96 38.93 73.26 32.79 73.52 33.21 73.22 33.41 64.24 39.34" style="fill:#fff"/><polygon points="64.67 40.26 64.39 39.84 73.69 33.7 73.96 34.11 73.66 34.31 64.67 40.26" style="fill:#fff"/><polygon points="65.15 41.14 64.88 40.72 74.18 34.57 74.45 34.99 74.15 35.19 65.15 41.14" style="fill:#fff"/><polygon points="65.69 41.99 65.41 41.58 74.72 35.42 74.99 35.84 74.68 36.05 65.69 41.99" style="fill:#fff"/><polygon points="66.25 42.82 65.98 42.4 75.3 36.24 75.57 36.66 75.26 36.87 66.25 42.82" style="fill:#fff"/><polygon points="66.88 43.6 66.6 43.19 75.93 37.02 76.2 37.44 75.9 37.64 66.88 43.6" style="fill:#fff"/><polygon points="67.54 44.37 67.26 43.95 76.59 37.78 76.88 38.19 76.56 38.41 67.54 44.37" style="fill:#fff"/><polygon points="68.25 45.1 67.98 44.69 77.32 38.51 77.59 38.93 77.29 39.13 68.25 45.1" style="fill:#fff"/><polygon points="69.01 45.8 68.74 45.38 78.1 39.19 78.38 39.61 78.04 39.83 69.01 45.8" style="fill:#fff"/><polygon points="69.82 46.46 69.55 46.05 78.95 39.84 79.22 40.26 78.88 40.48 69.82 46.46" style="fill:#fff"/><polygon points="70.7 47.09 70.43 46.67 79.89 40.41 79.97 40.41 79.97 40.66 80.11 40.86 79.76 41.1 70.7 47.09" style="fill:#fff"/><polygon points="71.64 47.67 71.36 47.26 80.8 41.02 81.08 41.43 80.72 41.67 71.64 47.67" style="fill:#fff"/><polygon points="72.66 48.2 72.39 47.78 81.86 41.52 82.13 41.94 81.76 42.19 72.66 48.2" style="fill:#fff"/><polygon points="73.78 48.66 73.5 48.24 83.02 41.95 83.3 42.36 82.89 42.64 73.78 48.66" style="fill:#fff"/><polygon points="75.03 49.03 74.76 48.61 84.35 42.27 84.63 42.69 75.03 49.03" style="fill:#fff"/><polygon points="76.51 49.26 76.23 48.84 86.03 42.37 86.1 42.37 86.11 42.62 86.24 42.83 76.51 49.26" style="fill:#fff"/><polygon points="78.41 49.2 78.13 48.78 87.98 42.27 88.26 42.69 78.41 49.2" style="fill:#fff"/><path d="M87.07,42.73c-3.76.55-8.28-1.73-11.52-5.82A16,16,0,0,1,72,28.35c-.21-2.84.66-5.18,2.42-6.58a6.11,6.11,0,0,1,2.95-1.24c3.76-.55,8.28,1.73,11.52,5.82,4.3,5.43,4.82,12.22,1.14,15.13A6.11,6.11,0,0,1,87.07,42.73Z" style="fill:#fff"/><path d="M77.38,20.71h0c3.64-.54,8.2,1.78,11.35,5.75a15.78,15.78,0,0,1,3.53,8.45c.2,2.78-.64,5.06-2.35,6.42A5.92,5.92,0,0,1,87,42.54c-3.64.54-8.2-1.78-11.35-5.75a15.78,15.78,0,0,1-3.53-8.45c-.2-2.78.64-5.06,2.35-6.42a5.93,5.93,0,0,1,2.86-1.21Zm-.05-.37a6.31,6.31,0,0,0-3,1.28C70.53,24.6,71,31.49,75.4,37c3.35,4.23,8,6.43,11.69,5.89a6.31,6.31,0,0,0,3-1.28c3.76-3,3.26-9.87-1.11-15.39C85.67,22,81,19.8,77.33,20.34Z" style="fill:#383838"/><ellipse cx="82.2" cy="31.61" rx="4.12" ry="6.03" transform="translate(-1.87 57.86) rotate(-38.37)" style="fill:#383838"/><polygon points="78.46 26.88 80.42 25.32 87.94 34.81 85.17 36.81 79.33 32.82 78.46 26.88" style="fill:#383838"/><path d="M86.47,35.23c-1.72.25-3.88-.84-5.37-2.73-2-2.54-2.26-5.69-.56-7a2.81,2.81,0,0,1,1.35-.57c1.72-.25,3.88.84,5.37,2.73,2,2.54,2.26,5.69.56,7A2.81,2.81,0,0,1,86.47,35.23Z" style="fill:#fff"/><path d="M81.92,25.08h0c1.66-.24,3.75.82,5.2,2.66a7.29,7.29,0,0,1,1.63,3.9,3.23,3.23,0,0,1-1,2.88,2.62,2.62,0,0,1-1.26.53c-1.66.25-3.75-.82-5.2-2.66a7.29,7.29,0,0,1-1.63-3.9,3.23,3.23,0,0,1,1-2.88,2.62,2.62,0,0,1,1.26-.53Zm-.05-.37a3,3,0,0,0-1.44.61c-1.78,1.41-1.55,4.68.53,7.3,1.59,2,3.8,3.05,5.55,2.8a3,3,0,0,0,1.44-.61c1.78-1.41,1.55-4.68-.53-7.3-1.59-2-3.8-3.05-5.55-2.79Z" style="fill:#383838"/><path d="M106.25,16.24,84.36,30.47a.41.41,0,0,1-.47-.52l22-14.26a.62.62,0,0,0,.1.31A.67.67,0,0,0,106.25,16.24Z" style="fill:#383838"/><polygon points="70.64 68.51 70.56 68.27 70.92 68.15 71.69 67.9 75.84 66.53 75.92 66.77 75.73 66.83 70.64 68.51" style="fill:#383838"/><polygon points="70.59 67.78 70.51 67.54 70.88 67.42 75.8 65.8 75.88 66.04 75.51 66.16 70.59 67.78" style="fill:#383838"/><polygon points="70.55 67.05 70.47 66.81 70.84 66.69 75.77 65.06 75.84 65.3 75.48 65.42 70.55 67.05" style="fill:#383838"/><polygon points="70.51 66.32 70.43 66.08 70.8 65.96 75.73 64.33 75.81 64.56 75.44 64.69 70.51 66.32" style="fill:#383838"/><polygon points="70.46 65.58 70.38 65.35 70.75 65.22 75.69 63.59 75.78 63.83 75.41 63.95 70.46 65.58" style="fill:#383838"/><polygon points="70.42 64.85 70.34 64.62 75.66 62.86 75.74 63.09 75.38 63.22 70.42 64.85" style="fill:#383838"/><polygon points="70.37 64.12 70.3 63.88 70.67 63.76 75.63 62.12 75.71 62.36 70.37 64.12" style="fill:#383838"/><polygon points="70.33 63.39 70.25 63.16 70.62 63.03 75.59 61.39 75.67 61.63 75.3 61.75 70.33 63.39" style="fill:#383838"/><polygon points="70.29 62.66 70.21 62.42 75.56 60.65 75.64 60.89 75.27 61.01 70.29 62.66" style="fill:#383838"/><polygon points="70.24 61.93 70.17 61.69 70.54 61.57 75.52 59.92 75.6 60.16 75.23 60.28 70.24 61.93" style="fill:#383838"/><polygon points="70.2 61.19 70.13 60.95 75.48 59.18 75.57 59.42 75.2 59.54 70.2 61.19" style="fill:#383838"/><polygon points="70.16 60.47 70.08 60.23 70.45 60.11 75.45 58.45 75.53 58.69 75.16 58.81 70.16 60.47" style="fill:#383838"/><rect x="69.93" y="58.6" width="5.67" height="0.25" transform="translate(-14.75 25.8) rotate(-18.29)" style="fill:#383838"/><rect x="74.56" y="57.12" width="0.89" height="0.25" transform="translate(-14.1 26.21) rotate(-18.15)" style="fill:#383838"/><polygon points="44.38 36.84 44.25 36.63 45.95 35.53 46.09 35.74 44.38 36.84" style="fill:#383838"/><polygon points="42.03 37.53 41.89 37.32 42.31 37.05 45.11 35.23 45.25 35.44 42.03 37.53" style="fill:#383838"/><polygon points="41.12 37.27 40.98 37.06 44.28 34.93 44.42 35.14 41.12 37.27" style="fill:#383838"/><polygon points="40.21 37.02 40.07 36.81 43.44 34.63 43.58 34.83 40.21 37.02" style="fill:#383838"/><polygon points="39.3 36.77 39.17 36.56 39.58 36.29 42.6 34.32 42.74 34.53 39.3 36.77" style="fill:#383838"/><polygon points="38.39 36.52 38.25 36.31 41.77 34.02 41.91 34.23 38.39 36.52" style="fill:#383838"/><polygon points="37.48 36.26 37.35 36.05 37.76 35.79 40.93 33.72 41.07 33.93 40.68 34.19 37.48 36.26" style="fill:#383838"/><polygon points="36.57 36.01 36.43 35.8 36.85 35.53 40.1 33.42 40.24 33.63 39.85 33.88 36.57 36.01" style="fill:#383838"/><polygon points="35.66 35.75 35.52 35.54 35.94 35.28 39.27 33.12 39.4 33.33 35.66 35.75" style="fill:#383838"/><polygon points="34.75 35.5 34.61 35.29 35.02 35.02 38.43 32.81 38.56 33.02 34.75 35.5" style="fill:#383838"/><polygon points="33.83 35.25 33.7 35.04 34.11 34.77 37.59 32.52 37.73 32.73 33.83 35.25" style="fill:#383838"/><polygon points="32.92 35 32.79 34.79 33.19 34.52 36.76 32.21 36.89 32.42 36.5 32.68 32.92 35" style="fill:#383838"/><polygon points="32.01 34.74 31.88 34.53 32.28 34.27 35.92 31.91 36.06 32.12 35.66 32.37 32.01 34.74" style="fill:#383838"/><polygon points="31.1 34.49 30.97 34.28 32.11 33.54 35.09 31.61 35.23 31.82 31.1 34.49" style="fill:#383838"/><rect x="24.55" y="30.83" width="4.8" height="0.25" transform="translate(-13.58 24.5) rotate(-39.91)" style="fill:#383838"/><polygon points="24.41 32.31 24.25 32.12 27.94 29.04 28.1 29.23 27.77 29.51 24.41 32.31" style="fill:#383838"/><rect x="23" y="30.28" width="4.81" height="0.25" transform="translate(-13.59 23.4) rotate(-39.93)" style="fill:#383838"/><rect x="22.22" y="30" width="4.82" height="0.25" transform="translate(-13.59 22.83) rotate(-39.93)" style="fill:#383838"/><polygon points="22.09 31.49 21.93 31.29 25.63 28.2 25.79 28.4 22.09 31.49" style="fill:#383838"/><rect x="20.67" y="29.44" width="4.82" height="0.25" transform="translate(-13.58 21.62) rotate(-39.78)" style="fill:#383838"/><polygon points="20.53 30.93 20.38 30.74 20.71 30.47 24.09 27.65 24.25 27.84 20.53 30.93" style="fill:#383838"/><polygon points="19.76 30.66 19.59 30.47 19.93 30.19 23.31 27.37 23.48 27.57 19.76 30.66" style="fill:#383838"/><rect x="18.35" y="28.61" width="4.84" height="0.25" transform="translate(-13.58 19.93) rotate(-39.76)" style="fill:#383838"/><rect x="17.56" y="28.33" width="4.85" height="0.25" transform="translate(-13.58 19.37) rotate(-39.78)" style="fill:#383838"/><rect x="16.79" y="28.06" width="4.85" height="0.25" transform="translate(-13.58 18.81) rotate(-39.76)" style="fill:#383838"/><polygon points="16.65 29.55 16.5 29.36 16.82 29.09 20.23 26.26 20.38 26.45 20.05 26.72 16.65 29.55" style="fill:#383838"/><polygon points="15.89 29.28 15.72 29.09 16.05 28.81 19.45 25.98 19.62 26.16 19.28 26.45 15.89 29.28" style="fill:#383838"/><rect x="14.46" y="27.23" width="4.87" height="0.25" transform="translate(-13.59 17.14) rotate(-39.78)" style="fill:#383838"/><polygon points="14.33 28.73 14.17 28.53 14.5 28.27 17.91 25.42 18.07 25.61 14.33 28.73" style="fill:#383838"/><polygon points="13.55 28.45 13.39 28.26 14.43 27.4 14.59 27.59 13.55 28.45" style="fill:#383838"/><polygon points="30.3 28.26 30.08 28.13 30.16 28.01 33.7 22.29 33.92 22.42 30.3 28.26" style="fill:#383838"/><polygon points="29.29 28.52 29.08 28.39 29.27 28.07 32.99 22.09 33.2 22.21 33 22.55 29.29 28.52" style="fill:#383838"/><polygon points="28.62 28.27 28.41 28.14 28.6 27.82 32.28 21.89 32.49 22.02 28.62 28.27" style="fill:#383838"/><polygon points="27.93 28.02 27.73 27.89 27.92 27.57 31.57 21.69 31.78 21.82 31.58 22.15 27.93 28.02" style="fill:#383838"/><polygon points="27.26 27.77 27.05 27.64 27.25 27.33 30.86 21.49 31.07 21.62 30.87 21.95 27.26 27.77" style="fill:#383838"/><polygon points="26.59 27.52 26.37 27.4 26.57 27.08 30.15 21.29 30.36 21.43 30.16 21.75 26.59 27.52" style="fill:#383838"/><polygon points="25.9 27.28 25.69 27.15 29.44 21.09 29.65 21.22 29.45 21.55 25.9 27.28" style="fill:#383838"/><polygon points="25.23 27.03 25.01 26.9 25.21 26.58 28.73 20.9 28.94 21.02 28.74 21.36 25.23 27.03" style="fill:#383838"/><polygon points="24.55 26.78 24.34 26.65 24.53 26.33 28.02 20.7 28.23 20.83 28.03 21.15 24.55 26.78" style="fill:#383838"/><polygon points="23.86 26.53 23.66 26.39 23.85 26.08 27.31 20.5 27.52 20.63 27.32 20.96 23.86 26.53" style="fill:#383838"/><polygon points="23.19 26.28 22.98 26.15 23.18 25.83 26.6 20.3 26.81 20.43 26.61 20.76 23.19 26.28" style="fill:#383838"/><polygon points="22.52 26.03 22.3 25.9 22.5 25.58 25.89 20.1 26.1 20.24 25.9 20.56 22.52 26.03" style="fill:#383838"/><polygon points="21.83 25.78 21.62 25.65 21.81 25.33 25.17 19.9 25.39 20.03 25.18 20.36 21.83 25.78" style="fill:#383838"/><polygon points="21.15 25.53 20.94 25.39 21.14 25.08 24.46 19.71 24.68 19.83 24.47 20.16 21.15 25.53" style="fill:#383838"/><polygon points="20.47 25.28 20.26 25.15 20.46 24.83 23.76 19.51 23.97 19.64 23.77 19.96 20.47 25.28" style="fill:#383838"/><polygon points="19.8 25.03 19.58 24.9 19.78 24.58 23.04 19.31 23.26 19.44 23.06 19.77 19.8 25.03" style="fill:#383838"/><polygon points="19.11 24.78 18.9 24.64 19.1 24.33 22.34 19.11 22.55 19.24 22.35 19.57 19.11 24.78" style="fill:#383838"/><polygon points="46.9 35.09 46.69 34.95 46.89 34.64 50.67 28.52 50.88 28.66 50.68 28.99 46.9 35.09" style="fill:#383838"/><polygon points="46.23 34.84 46.02 34.7 49.97 28.32 50.18 28.45 49.98 28.78 46.23 34.84" style="fill:#383838"/><polygon points="45.55 34.58 45.34 34.45 45.54 34.13 49.27 28.11 49.48 28.25 49.27 28.57 45.55 34.58" style="fill:#383838"/><polygon points="44.87 34.32 44.66 34.19 44.86 33.88 48.55 27.91 48.77 28.03 48.56 28.36 44.87 34.32" style="fill:#383838"/><polygon points="44.2 34.07 43.98 33.94 44.19 33.62 47.85 27.69 48.06 27.83 44.2 34.07" style="fill:#383838"/><polygon points="43.52 33.81 43.3 33.68 43.51 33.36 47.15 27.48 47.36 27.62 47.15 27.95 43.52 33.81" style="fill:#383838"/><polygon points="42.85 33.56 42.63 33.44 42.83 33.11 46.45 27.27 46.66 27.41 46.45 27.74 42.85 33.56" style="fill:#383838"/><polygon points="42.17 33.31 41.96 33.17 42.15 32.86 45.74 27.07 45.96 27.2 45.74 27.53 42.17 33.31" style="fill:#383838"/><polygon points="41.5 33.05 41.28 32.93 41.48 32.61 45.03 26.86 45.25 27 45.04 27.32 41.5 33.05" style="fill:#383838"/><polygon points="40.82 32.8 40.61 32.67 40.8 32.35 44.33 26.65 44.54 26.79 44.34 27.11 40.82 32.8" style="fill:#383838"/><polygon points="40.15 32.55 39.93 32.42 40.13 32.1 43.63 26.45 43.84 26.57 43.64 26.91 40.15 32.55" style="fill:#383838"/><polygon points="39.47 32.3 39.26 32.16 39.45 31.85 42.92 26.24 43.14 26.37 39.47 32.3" style="fill:#383838"/><rect x="37.05" y="28.91" width="6.92" height="0.25" transform="translate(-5.51 48.18) rotate(-58.22)" style="fill:#383838"/><polygon points="38.11 31.79 37.9 31.65 38.1 31.34 41.52 25.82 41.73 25.95 41.53 26.29 38.11 31.79" style="fill:#383838"/><polygon points="37.43 31.54 37.22 31.4 37.42 31.08 40.81 25.61 41.02 25.74 40.82 26.07 37.43 31.54" style="fill:#383838"/><polygon points="36.76 31.28 36.55 31.15 36.74 30.83 40.1 25.4 40.31 25.53 40.11 25.87 36.76 31.28" style="fill:#383838"/><polygon points="36.99 29.56 36.87 29.51 36.77 29.44 39.4 25.19 39.61 25.32 36.99 29.56" style="fill:#383838"/><polygon points="66.93 72.45 66.72 72.3 67.07 71.83 68.75 69.57 68.95 69.72 66.93 72.45" style="fill:#383838"/><polygon points="66.85 71.35 66.65 71.2 66.99 70.74 68.69 68.46 68.89 68.61 68.54 69.08 66.85 71.35" style="fill:#383838"/><polygon points="66.78 70.26 66.58 70.12 68.64 67.35 68.84 67.5 66.78 70.26" style="fill:#383838"/><polygon points="66.71 69.17 66.51 69.02 68.58 66.24 68.78 66.38 66.71 69.17" style="fill:#383838"/><polygon points="66.64 68.08 66.44 67.93 66.78 67.47 68.52 65.13 68.72 65.28 68.37 65.75 66.64 68.08" style="fill:#383838"/><polygon points="66.57 66.99 66.37 66.84 68.46 64.01 68.66 64.16 66.57 66.99" style="fill:#383838"/><polygon points="66.49 65.9 66.29 65.75 68.4 62.91 68.6 63.05 68.26 63.52 66.49 65.9" style="fill:#383838"/><polygon points="66.42 64.8 66.22 64.65 66.56 64.19 68.35 61.79 68.55 61.94 66.42 64.8" style="fill:#383838"/><polygon points="67.58 62.06 67.37 61.92 68.29 60.69 68.49 60.83 67.58 62.06" style="fill:#383838"/><polygon points="67.61 86.92 67.42 86.76 67.6 86.55 69.42 84.49 69.61 84.66 67.61 86.92" style="fill:#383838"/><polygon points="67.55 85.92 67.36 85.75 69.38 83.47 69.57 83.64 69.21 84.04 67.55 85.92" style="fill:#383838"/><polygon points="67.49 84.92 67.3 84.76 67.64 84.36 69.34 82.44 69.53 82.61 69.17 83.02 67.49 84.92" style="fill:#383838"/><polygon points="67.42 83.93 67.23 83.76 69.3 81.42 69.49 81.59 69.13 82 67.42 83.93" style="fill:#383838"/><polygon points="67.36 82.92 67.17 82.76 67.52 82.37 69.26 80.4 69.45 80.57 69.09 80.97 67.36 82.92" style="fill:#383838"/><polygon points="67.3 81.93 67.11 81.77 67.46 81.38 69.22 79.38 69.41 79.55 69.05 79.95 67.3 81.93" style="fill:#383838"/><polygon points="67.23 80.93 67.04 80.77 67.39 80.38 69.18 78.35 69.36 78.52 69.01 78.92 67.23 80.93" style="fill:#383838"/><polygon points="67.49 79.58 67.3 79.42 69.14 77.33 69.33 77.5 67.49 79.58" style="fill:#383838"/><polygon points="69.07 76.72 68.88 76.55 69.1 76.31 69.28 76.47 69.07 76.72" style="fill:#383838"/><polygon points="71.29 84.14 71.25 83.9 77.31 82.83 77.36 83.08 77.18 83.11 71.29 84.14" style="fill:#383838"/><polygon points="71.26 83.43 71.22 83.18 71.58 83.12 77.29 82.11 77.34 82.36 76.97 82.43 71.26 83.43" style="fill:#383838"/><polygon points="71.23 82.71 71.19 82.46 71.55 82.4 77.27 81.4 77.32 81.64 76.95 81.71 71.23 82.71" style="fill:#383838"/><polygon points="71.2 82 71.17 81.75 71.53 81.69 77.25 80.68 77.3 80.92 76.93 80.99 71.2 82" style="fill:#383838"/><polygon points="71.18 81.28 71.14 81.04 71.51 80.97 77.23 79.96 77.27 80.21 76.91 80.28 71.18 81.28" style="fill:#383838"/><polygon points="71.16 80.57 71.12 80.32 71.48 80.26 77.21 79.25 77.25 79.5 76.88 79.56 71.16 80.57" style="fill:#383838"/><polygon points="71.14 79.86 71.09 79.61 71.45 79.54 77.19 78.54 77.23 78.78 76.87 78.85 71.14 79.86" style="fill:#383838"/><polygon points="71.1 79.14 71.06 78.89 71.44 78.83 77.17 77.82 77.21 78.07 76.85 78.13 71.1 79.14" style="fill:#383838"/><polygon points="71.08 78.42 71.03 78.18 71.41 78.11 77.15 77.1 77.19 77.35 71.08 78.42" style="fill:#383838"/><polygon points="71.05 77.71 71.01 77.46 71.38 77.4 77.13 76.39 77.17 76.63 76.8 76.7 71.05 77.71" style="fill:#383838"/><polygon points="71.03 77 70.99 76.75 71.36 76.68 77.11 75.68 77.14 75.92 76.78 75.98 71.03 77" style="fill:#383838"/><polygon points="71.01 76.28 70.96 76.04 71.34 75.97 77.08 74.96 77.13 75.21 76.76 75.28 71.01 76.28" style="fill:#383838"/><polygon points="70.98 75.56 70.93 75.32 71.31 75.25 77.06 74.24 77.1 74.48 76.74 74.55 70.98 75.56" style="fill:#383838"/><polygon points="72.21 74.63 72.16 74.39 77.04 73.53 77.08 73.77 72.21 74.63" style="fill:#383838"/><polygon points="50.95 3.19 50.18 2.74 49.37 3.12 49.56 2.24 48.95 1.59 49.84 1.5 50.27 0.72 50.63 1.54 51.51 1.71 50.84 2.3 50.95 3.19" style="fill:#fff"/><polygon points="46.57 12.3 45.8 11.85 44.99 12.23 45.18 11.36 44.57 10.7 45.46 10.61 45.89 9.83 46.25 10.65 47.13 10.82 46.46 11.41 46.57 12.3" style="fill:#fff"/><polygon points="60.15 17.83 59.38 17.38 58.57 17.76 58.76 16.89 58.15 16.23 59.04 16.14 59.47 15.36 59.83 16.18 60.71 16.35 60.04 16.94 60.15 17.83" style="fill:#fff"/><polygon points="80.67 8.82 79.89 8.37 79.08 8.75 79.27 7.88 78.66 7.22 79.55 7.13 79.99 6.35 80.34 7.17 81.22 7.34 80.56 7.94 80.67 8.82" style="fill:#fff"/><polygon points="69.9 14.78 69.12 14.32 68.31 14.71 68.5 13.83 67.89 13.18 68.78 13.09 69.22 12.3 69.58 13.12 70.46 13.29 69.79 13.89 69.9 14.78" style="fill:#fff"/><polygon points="100.35 30.87 99.58 30.42 98.77 30.8 98.96 29.93 98.35 29.27 99.24 29.18 99.67 28.4 100.03 29.22 100.91 29.39 100.24 29.98 100.35 30.87" style="fill:#fff"/><polygon points="94.05 46.89 93.27 46.44 92.46 46.82 92.65 45.94 92.04 45.29 92.93 45.2 93.36 44.42 93.72 45.24 94.6 45.41 93.93 46 94.05 46.89" style="fill:#fff"/><polygon points="106.94 46.46 106.16 46.01 105.35 46.39 105.54 45.51 104.93 44.86 105.82 44.77 106.25 43.99 106.61 44.81 107.5 44.98 106.83 45.57 106.94 46.46" style="fill:#fff"/><polygon points="97.38 57.86 96.6 57.41 95.79 57.79 95.98 56.91 95.37 56.26 96.26 56.17 96.7 55.39 97.06 56.21 97.94 56.38 97.27 56.97 97.38 57.86" style="fill:#fff"/><polygon points="109.5 59.63 108.73 59.17 107.92 59.55 108.11 58.68 107.5 58.02 108.39 57.94 108.82 57.15 109.18 57.97 110.06 58.14 109.39 58.74 109.5 59.63" style="fill:#fff"/><polygon points="89.86 72.25 89.08 71.79 88.27 72.17 88.47 71.3 87.85 70.64 88.75 70.56 89.18 69.77 89.54 70.59 90.42 70.76 89.75 71.36 89.86 72.25" style="fill:#fff"/><polygon points="81.66 57.27 80.89 56.81 80.08 57.19 80.27 56.32 79.66 55.66 80.55 55.58 80.98 54.79 81.34 55.61 82.22 55.78 81.55 56.38 81.66 57.27" style="fill:#fff"/><polygon points="59.05 74.89 58.27 74.44 57.46 74.81 57.65 73.94 57.04 73.29 57.93 73.2 58.37 72.41 58.72 73.23 59.6 73.4 58.93 74 59.05 74.89" style="fill:#fff"/><polygon points="47.52 57.27 46.75 56.81 45.94 57.19 46.13 56.32 45.52 55.66 46.41 55.58 46.84 54.79 47.2 55.61 48.08 55.78 47.41 56.38 47.52 57.27" style="fill:#fff"/><polygon points="41.23 72.52 40.46 72.06 39.65 72.44 39.84 71.57 39.23 70.91 40.12 70.83 40.55 70.04 40.91 70.86 41.79 71.03 41.12 71.63 41.23 72.52" style="fill:#fff"/><polygon points="35.56 59.98 34.79 59.53 33.98 59.91 34.17 59.04 33.56 58.38 34.45 58.3 34.88 57.51 35.24 58.33 36.12 58.5 35.45 59.1 35.56 59.98" style="fill:#fff"/><polygon points="21.77 53.49 20.99 53.04 20.18 53.42 20.37 52.54 19.76 51.89 20.65 51.8 21.09 51.02 21.44 51.84 22.32 52.01 21.66 52.6 21.77 53.49" style="fill:#fff"/><polygon points="33.04 40.76 32.27 40.31 31.46 40.69 31.65 39.81 31.04 39.16 31.93 39.07 32.36 38.29 32.72 39.11 33.6 39.28 32.93 39.87 33.04 40.76" style="fill:#fff"/><polygon points="39.84 21.41 39.07 20.95 38.26 21.33 38.45 20.46 37.84 19.8 38.73 19.72 39.16 18.93 39.52 19.75 40.4 19.92 39.73 20.52 39.84 21.41" style="fill:#fff"/><polygon points="88 18.02 87.23 17.57 86.42 17.95 86.61 17.07 86 16.42 86.89 16.33 87.32 15.54 87.68 16.36 88.56 16.53 87.89 17.13 88 18.02" style="fill:#fff"/></g></g></g></svg>