<svg xmlns="http://www.w3.org/2000/svg" viewBox="0 0 449.55 512"><title>contact_selected</title><g id="Layer_2" data-name="Layer 2"><g id="Layer_1-2" data-name="Layer 1"><g id="_1" data-name="1"><polygon points="38.05 182.34 32.46 177.75 25.5 179.75 28.14 173 24.08 167 31.31 167.43 35.77 161.72 37.59 168.73 44.4 171.2 38.3 175.1 38.05 182.34" style="fill:#fff"/><polygon points="113.36 91.28 106.28 89.76 101.01 94.74 100.27 87.53 93.91 84.06 100.53 81.13 101.86 74.01 106.7 79.39 113.89 78.46 110.26 84.73 113.36 91.28" style="fill:#fff"/><polygon points="387.85 72.41 380.77 70.89 375.5 75.87 374.75 68.67 368.39 65.2 375.01 62.26 376.35 55.14 381.19 60.53 388.37 59.59 384.74 65.86 387.85 72.41" style="fill:#fff"/><polygon points="53.7 303.43 46.62 301.92 41.35 306.89 40.6 299.69 34.24 296.22 40.86 293.28 42.2 286.16 47.04 291.55 54.22 290.62 50.59 296.88 53.7 303.43" style="fill:#fff"/><polygon points="147.34 340.59 140.26 339.08 134.99 344.05 134.25 336.85 127.88 333.38 134.51 330.44 135.84 323.32 140.68 328.71 147.87 327.77 144.24 334.05 147.34 340.59" style="fill:#fff"/><polygon points="312.43 165.45 305.35 163.94 300.08 168.92 299.33 161.71 292.97 158.24 299.59 155.3 300.93 148.18 305.77 153.57 312.95 152.64 309.32 158.91 312.43 165.45" style="fill:#fff"/><polygon points="447.94 286.93 440.85 285.41 435.59 290.39 434.84 283.19 428.48 279.72 435.1 276.78 436.44 269.66 441.27 275.05 448.46 274.11 444.83 280.38 447.94 286.93" style="fill:#fff"/><polygon points="429.7 127.03 422.62 125.51 417.35 130.49 416.6 123.28 410.24 119.81 416.87 116.88 418.2 109.75 423.04 115.14 430.22 114.21 426.6 120.48 429.7 127.03" style="fill:#fff"/><polygon points="318.75 74.81 311.66 73.3 306.4 78.27 305.65 71.07 299.29 67.6 305.91 64.66 307.25 57.54 312.09 62.93 319.27 62 315.64 68.27 318.75 74.81" style="fill:#fff"/><polygon points="251.48 17.27 244.39 15.76 239.13 20.73 238.38 13.53 232.02 10.06 238.64 7.12 239.98 0 244.82 5.39 252 4.46 248.37 10.72 251.48 17.27" style="fill:#fff"/><polygon points="365.17 340.59 358.09 339.08 352.82 344.05 352.07 336.85 345.71 333.38 352.33 330.44 353.67 323.32 358.51 328.71 365.69 327.77 362.06 334.05 365.17 340.59" style="fill:#fff"/><polygon points="159.6 403.5 152.52 401.99 147.26 406.96 146.51 399.76 140.15 396.29 146.77 393.35 148.1 386.23 152.94 391.62 160.13 390.69 156.5 396.96 159.6 403.5" style="fill:#fff"/><polygon points="205 126.63 211.16 126.63 212.15 140.9 205.78 140.9 205 126.63" style="fill:#383838"/><path d="M246.8,62.84c-.61,6.4-2.68,13.21-11.81,15.77s-23.05-.7-23.05-.7,21.7-2.91,26.91-10.68,7.62-18.52,7.62-18.52A77.14,77.14,0,0,1,246.8,62.84Z" style="fill:#383838"/><path d="M412.5,263.17a38.68,38.68,0,0,0-6.49,3.28c.89,3.88,2.24,11.72-1,14.44a6.09,6.09,0,0,1-4.07,1.53,7.12,7.12,0,0,1-1.31-.11c-.22,0-.41,0-.63,0,0,0,0,0-.07.11-.63,1,.07,3.17,1,5.86.41,1.23.86,2.61,1.27,4.1,1.79,6.53-7.68,50.59-24.73,82.63a72.94,72.94,0,0,1-48.68,37.27,10.88,10.88,0,0,1-.86,4.7,7.55,7.55,0,0,1-1.12,1.87c-1.83,2.31-4.7,3.58-8.58,3.77a7.07,7.07,0,0,1-1.27.07H315c-8.39-.34-13.43-6.49-16-12.2a5.81,5.81,0,0,1-4.63,2.13,8.51,8.51,0,0,1-3-.6c-6.83-2.42-9.62-21.19-10.56-29.36a6.48,6.48,0,0,1-1.94.26,6.9,6.9,0,0,1-4.66-1.83c-1.64-1.38-3.28-8.13-4.81-16.45-.6,8.36-5,12.57-7.42,14.29.15.37.3.75.45,1.23,2.09,5.56,6.15,18.35,6.15,31.89,0,1.08,0,2.17-.07,3.25-.86,15-6.08,29.81-8.24,35.4a10.07,10.07,0,0,1,3.21,2.24l.15.15a6.65,6.65,0,0,1,.49.56l-1.76,1L237.85,468.9,11.71,339.75l-1.49-.86v-3.1c2.65-16.71,6.94-26.63,8.09-29.17a84.27,84.27,0,0,1,.15-24.25,183.92,183.92,0,0,1,5.86-27c-.82-2.28-3.21-9.74-1.83-16.53,1.27-6.45,6.3-18.24,25.7-24.62,16.9-5.52,42.64-8.06,43.72-8.13l103.33-3.58,30.14-1h.15c1.49.15,23.61,2.76,43.64,7.35,12.42,2.87,24.06,6.45,29.54,10.74,4.85,3.77,7.54,8.13,8,12.94a17.94,17.94,0,0,1-2.95,11.27c3.43,2.61,11.26,9.07,14.55,15.78,2.95,6,8.21,19.25,10.89,26.19a31.73,31.73,0,0,1,10.26-11.12c5.6-3.66,7.13-4.77,7.57-5.11l2.72-4a31,31,0,0,0-4.1-5.82c-2.95-2.95.82-8.73,3.62-12.2A14.67,14.67,0,0,1,344.65,235c.89-6.9-6.9-36.44-11.15-42.11-3.25-4.29-7.24-9.63-5.52-14,.9-2.39,3.36-4,7.24-4.7a8.36,8.36,0,0,1,1.38-.11c6.38,0,11.9,8,17.23,15.78,2.76,4,6.94,10.11,8.73,10.11,1.83-1,4.29-10.52,6.08-17.46,4.29-16.41,9.14-35,19.32-35a8.48,8.48,0,0,1,1.64.15,8,8,0,0,1,5.41,3.77c4.59,7.35.45,23.39-2.72,35.44.56-1.34,1.16-2.69,1.72-4C402.06,164.2,408.25,151,414.37,151a5.32,5.32,0,0,1,.75.08c4.29.75,6.75,3.73,7.91,7.42a5.9,5.9,0,0,1,4-1.42,10.81,10.81,0,0,1,5.37,1.75c6.45,4,6.79,11.56,6.12,16.83a7.47,7.47,0,0,1,3.36-.86c2.39,0,5.63,1.34,7.42,7.76C453.13,196.43,418.43,260.78,412.5,263.17Z" style="fill:#fff"/><path d="M411.76,261.3a38.31,38.31,0,0,0-8,4.29s0,0,0,.07c.19.82,2.8,11,0,13.58a.08.08,0,0,1-.07.07,4.45,4.45,0,0,1-3.84,1h0c-1-.11-1.9-.22-2.65,1-1.31,2.2.11,5.22,1.45,9.7.22.56.38,1.19.56,1.83,1.49,5.52-7.5,49.09-24.55,81.17s-49.09,36.56-49.09,36.56,2.5,10.52-10.52,10-16-16.53-16-16.53,0,8.51-7,6c-4.18-1.49-6.79-12.16-8.17-20.44-1-5.6-1.34-10.11-1.34-10.11s-3.51,3-7,0c-.75-.63-1.53-3-2.35-6.45-3.06-12.91-6.19-40.14-6.19-40.14s.52,17.53.52,29.55-8,15.52-8,15.52.15.37.45,1.08a102.33,102.33,0,0,1,3.92,12.5,79.92,79.92,0,0,1,2.65,23.5c-1,18.54-9,37.08-9,37.08a3.63,3.63,0,0,1,1.83.26,7.6,7.6,0,0,1,3.06,2.16L237.85,468.9l-60.92-34.77-.11-.11-46.22-26.37L74.68,375.72l-63-36a16.12,16.12,0,0,1,.22-1.9c3-20.14,8.5-31,8.5-31s-2-9.51,0-24.21a183.41,183.41,0,0,1,6-27.31v-.07c-.34-.82-3.43-8.92-2-16,1.53-7.53,7.54-17.53,24.4-23.09,13-4.25,31.78-6.75,39.62-7.65l3.69-.41,133.18-4.62s2.91.34,7.54,1c16.19,2.2,53.76,8.13,64.69,16.68,10.26,8,7.39,16.67,5.07,20.74a12.44,12.44,0,0,1-1.53,2.31l0,0s11.49,8,15.52,16.23,12.53,30.37,12.53,30.37a30.54,30.54,0,0,1,11.49-14.51c1.2-.78,2.2-1.42,3.06-2,4.74-3.13,5-3.47,5-3.51l3.5-5.22,0,0a35,35,0,0,0-5-7.27c-2.5-2.5,5-11,5-11l-.9-.71c-1.75-1.57-5.41-5.56-4.62-11.34,1-7.5-7-37.56-11.53-43.57s-10-13.54.48-15.56,21.56,29.06,28.09,25.55,10.52-55.1,25.55-52.08-4,47.6-1,48.65,18-46.67,26.56-45.14c7.27,1.27,7.2,10.22,7,12.79.3-2.39,1.83-10,9.48-5.3,8.73,5.33,4.29,19.1,4,20,.6-.71,8.65-9.47,12,2.54C450.85,195.65,416.76,259.29,411.76,261.3Z" style="fill:#383838"/><path d="M231.91,206.69l-24.32,61.66c-5.37-.3-13.76-.52-26.34-.52-1.42,0-2.87,0-4.29,0l.56-2.05,7-6.9c-1.76.41-37.53,9.33-39.8,4.36s28.2-21.19,30.29-22.34c-1.53.48-20.26,6.19-27.12,0-7.16-6.57,0-15.82,0-15.82s23.09-10.93,47.38-22.53l30.14-1h.15c1.49.15,23.61,2.76,43.64,7.35l-.93,4.4C254.56,210,239.52,207.73,231.91,206.69Z" style="fill:#fff"/><path d="M70.94,408.06c0-.16.06-.26.08-.34l0,.12C71,407.9,71,408,70.94,408.06Z" style="fill:#fff"/><path d="M259.25,452.46l-1.82-.26A3.73,3.73,0,0,1,259.25,452.46Z" style="fill:#fff"/><path d="M259.44,378a96.36,96.36,0,0,1,4.36,13.58l-41.11,4-92.11,12.09L74.68,375.72a20.59,20.59,0,0,1-.19-3.43l-4.44-62.56-.52-7,51.56-29,1.57-.86,80.65-2.31,2.8,1.83,59.35,38.95v.07l1.49,21.6s.52,17.53.52,29.55S259.44,378,259.44,378Z" style="fill:#383838"/><path d="M122.65,276.83,70,309.72,26.44,255.36l0-.06c-.32-.82-3.41-8.92-2-16.05,1.5-7.52,7.52-17.54,24.37-23.07,13-4.27,31.81-6.75,39.64-7.68l32.63,65.2Z" style="fill:#fff"/><path d="M266.46,415.11c-1,18.54-9,37.08-9,37.08a3.63,3.63,0,0,1,1.83.26,7.6,7.6,0,0,1,3.06,2.16L237.85,468.9l-60.92-34.77-.11-.11s-9.66-7-1.27-12.65S198.86,407,198.86,407s-39.17,9.4-38,0S197,388.25,197,388.25s-31.39-4.1-33.76-11.21.67-9.87,1.83-9.9c5.93-.22,24.84-1,33.8-2.42,10.71-1.68,22-3,22-3s9.1,9.85,17.08,14.7c6.27,3.77,17.35,3.17,21.93,2.72a102.33,102.33,0,0,1,3.92,12.5A79.92,79.92,0,0,1,266.46,415.11Z" style="fill:#fff"/><path d="M120,276.07l-49.54,31L28.2,254.36c-.67-1.9-3-8.77-1.79-14.73,0-.22.11-.45.15-.71,1.34-5.71,6.15-15.33,22.87-20.85,11.75-3.84,28.24-6.23,37.86-7.43l7.27,14.51,9.81,19.62L119,273.95Z" style="fill:#383838"/><path d="M301.06,244.2l0,.06-35.58,67.12-1.76,3.35-59.36-37.9,1.76-4.47,26.76-67.88c16.2,2.21,53.78,8.16,64.68,16.7C311,231.71,301.78,243.36,301.06,244.2Z" style="fill:#fff"/><path d="M300.55,232.88a11.69,11.69,0,0,1-.45,4.63,15.87,15.87,0,0,1-2.76,5.41l-.19.26-.11.15-15.63,29.47-17,32,0,.07-3.69,6.94L204.57,276l7.5-19a1.44,1.44,0,0,0,.07-.19c.07-.19.19-.48.34-.89l.45-1.16.3-.67,3.62-9.21,15.07-38.24c13.76,1.9,51.67,7.83,62.15,16a19,19,0,0,1,5.15,5.86,10.81,10.81,0,0,1,1.16,3.1C300.44,232.06,300.51,232.47,300.55,232.88Z" style="fill:#383838"/><path d="M101.09,270.53s1,87.48,8,91.49,113,0,113.61-5.51-2.55-85.62-6-88.91S107.11,265.72,101.09,270.53Z" style="fill:#fff"/><path d="M220.8,355.64a14.19,14.19,0,0,1-2.95.9q-2.13.45-5.37.9c-15.85,2.24-49.95,4.21-78.34,4.21-20.89,0-23.76-1.23-24-1.38-3.58-3.25-6.23-43.57-6.94-83,0-1.83,0-3.69-.07-5.52,3.13-1,13.2-2,26.9-2.65,14.4-.78,32.79-1.27,51.25-1.27,23,0,32,.78,34.1,1.31C217,273.46,218.86,301,219.9,324c0,0,0,0,0,.07.08,1.31.15,2.61.19,3.88.37,8.09.6,15.41.71,20.63v0C220.87,351.88,220.87,354.3,220.8,355.64Z" style="fill:#383838"/><path d="M153.25,225.16c-36.61,0-57-11.48-61.14-17a3.8,3.8,0,0,1-.9-3.36,5.76,5.76,0,0,1,3-3.58,10.32,10.32,0,0,1-2.45-5.88,4.86,4.86,0,0,1,2.81-4.52c-2.33-3-6.44-8.47-8.91-12.29-2.88-4.46-6.28-13.32-7.63-17-.22,0-.46,0-.72,0h0a13.55,13.55,0,0,1-7.08-2.35c-6.57-4.11-4.1-36.65-2.57-39.34s5.2-3.92,7.43-4.51v-4.2c-1.62-1.06-9-1.34-13.08-1.5-6.29-.24-9.37-.4-10.81-1.48-3.69-2.77-2-28.7-2-29,.94-12.89,2.91-14,3.86-14.46,2.61-1.41,10.07-1.92,15.67-1.92,5.23,0,11.9.37,14,2.13,1.75,1.46,2.38,5,3.26,10.72.3,1.93.72,4.69,1.22,6.66,3.7-9.2,17.85-32,67.58-33.35q2-.05,3.92-.05c46.89,0,60.42,23.31,64.93,31.31.38-1.51.76-3.48,1-5,1.07-5.63,1.81-9.15,3.63-10.51,1.31-1,4.51-1.48,9.5-1.48,1.44,0,14.18.09,17.35,3.26,4,4,1.49,37.2.42,39.87-.65,1.63-2.47,3.38-15.84,3.38-2.94,0-5.65-.09-7.41-.16v5.26c2.3.4,6.08,1.53,7.77,4.62,2.21,4.06,1.87,30.34.11,34.92-1.53,4-6.29,4.72-9.28,4.78a76.05,76.05,0,0,1-4.22,11.72,97.15,97.15,0,0,1-7.5,12.51c1.75,1.72,4.39,5,3.82,8.71a11,11,0,0,1-2.9,5.68c2.67,1.11,5.46,2.94,5.15,5.66-.51,4.38-28.11,21.35-70.76,21.67Z" style="fill:#fff"/><path d="M253.85,105.71c-1.31,3.21-23.39,1.9-23.39,1.9v9s6.08.3,8,3.84,1.6,29.13,0,33.31-9,3.51-9,3.51A77.4,77.4,0,0,1,225,170.13a103.86,103.86,0,0,1-8.32,13.62s5.11,4,4.48,8.09-4.81,6.75-4.81,6.75,7.39,1.9,7,4.66-26.6,19.66-68.86,20S92.1,208.52,93.07,205.31s4.78-3,4.78-3-4.14-3.73-4.14-7,4.14-3.47,4.14-3.47-7.05-9-10.56-14.4-8-18.17-8-18.17-2.87,1.53-8-1.68-3.54-33.95-1.94-36.78S77,116.9,77,116.9v-6.08c0-4.14-22.08-2.24-24.66-4.14S50.13,68.55,54,66.46s24.66-2.39,27.53,0,2.57,20.67,6.42,20c0,0,5.11-25.63,45.88-33.39l0,0a134.71,134.71,0,0,1,21-2.13c45.25-1.19,60.28,18.76,65.92,28.2,1.87,3.13,2.69,5.07,3.25,4.77,2.24-1.27,2.91-15.7,5.45-17.61S251,65,253.85,67.92,255.12,102.5,253.85,105.71Z" style="fill:#383838"/><path d="M250.16,103c-1.16.78-4.4,1.19-7.87,1.27-4.7.15-9.92-.34-11.3-1.27-2.24-1.49-3.21-25.44-.63-30.7a2.07,2.07,0,0,1,.63-.86l.6-.07c.3,0,.71,0,1.23-.07,4.63-.41,16.6-1.31,17.35.15C251,73.18,252.88,101,250.16,103Z" style="fill:#fff"/><path d="M241,105.3c-4.52,0-9.12-.55-10.55-1.49-2.16-1.42-2.54-12.45-2.61-15.79-.09-4.61,0-15.55,2.58-17.41l.22-.16.27,0c18.94-1.83,19.85,0,20.16.54.79,1.53,3.24,30.34-.31,32.84C249.23,104.83,245.13,105.3,241,105.3Zm-9.55-32.92c-.27.39-.9,1.67-1.3,5.66-1,9.59.23,22.83,1.44,24.13,2.05,1.34,15.57,1.68,18,0,1.94-2,.71-27-.27-30.15C247.77,71.32,239,71.66,231.42,72.38Z" style="fill:#fff"/><path d="M160.94,198.22c-1,0-1.93,0-2.93,0-64.09-1.81-67.36-40.3-69.12-61-.16-1.84-.3-3.56-.48-5.11-.24-2.11.65-15.18,10.66-26.38C110,93.49,127.7,87.28,151.65,87.28c2.19,0,4.46.05,6.75.16,27,1.24,46.25,8.23,57.18,20.78,9.55,11,9.13,22.22,9,23.69.1,2.38.83,29.85-17.24,48.87C196.37,192.35,180.75,198.22,160.94,198.22Z" style="fill:#fff"/><path d="M90.33,131.88c-.12-1,0-45.64,68-42.52s64.38,42.52,64.38,42.52,3.36,66.3-64.62,64.38S92.49,150.86,90.33,131.88Z" style="fill:#383838"/><path d="M220.8,79.15c-.9,5.71-14,5.22-14,5.22s-35.59,2.8-39.32-.56c-3.5-3.14,22.72-7.72,25.82-8.24-3.69.3-38.61,3-45.4,0C140.74,72.28,162,64.15,162,64.15s-32.42,3.73-36.78,0,7.72-10.56,8.62-11l0,0a134.71,134.71,0,0,1,21-2.13C200.13,49.75,215.16,69.71,220.8,79.15Z" style="fill:#fff"/><path d="M102,194.48s32.15,12.57,59.27,11.41c32.4-.47,51.88-21.5,55.23-16.12s-26.33,21.43-55.6,21.81S85.37,201.15,102,194.48Z" style="fill:#fff"/><path d="M100.26,203.53a152,152,0,0,0,56.28,10.84c31.5-.14,57.07-15.84,61.51-12.16s-32.67,18.58-60.47,18.94S84.48,209.87,100.26,203.53Z" style="fill:#fff"/><path d="M248.44,99.48c1,4.46-6.15,4.77-6.15,4.77-4.7.15-9.92-.34-11.3-1.27-2.24-1.49-3.21-25.44-.63-30.7,0,0,2.76,12.65,4.44,15S242.4,90,242.4,90s-5.15.93-6.86,3.58.3,5.9,1.42,6.75a5.9,5.9,0,0,0,7.68,0c3.25-2.43,2.42-4.22,2.2-4.59C247,95.89,248.74,97.95,248.44,99.48Z" style="fill:#383838"/><path d="M240.19,97.37c-2.31-1-1-3.3-1.08-4.36a3.84,3.84,0,1,0,5.54,3.42c0-.08,0-.15,0-.23C243.22,97.05,242.49,98.42,240.19,97.37Z" style="fill:#383838"/><path d="M180.69,310.23c3.49,2.56.58,5.89.29,7.67a6.56,6.56,0,1,0-8.07-7.66c0,.13,0,.26,0,.39C175.5,309.71,177.19,307.67,180.69,310.23Z" style="fill:#fff"/><path d="M116.22,287.87c2.54,1.86.42,4.28.21,5.58a4.77,4.77,0,1,0-5.87-5.57c0,.1,0,.19,0,.29C112.45,287.49,113.69,286,116.22,287.87Z" style="fill:#fff"/><path d="M117.42,304.11c2.54,1.86.42,4.28.21,5.58a4.77,4.77,0,1,0-5.87-5.57c0,.1,0,.19,0,.29C113.65,303.73,114.88,302.25,117.42,304.11Z" style="fill:#fff"/><path d="M118.37,322.43c2.54,1.86.42,4.28.21,5.57a4.77,4.77,0,1,0-5.87-5.57c0,.1,0,.19,0,.29C114.6,322.05,115.83,320.57,118.37,322.43Z" style="fill:#fff"/><path d="M117.42,341.06c2.54,1.86.42,4.28.21,5.57a4.77,4.77,0,1,0-5.87-5.57c0,.1,0,.19,0,.29C113.65,340.68,114.88,339.2,117.42,341.06Z" style="fill:#fff"/><path d="M240.19,85.46c-2.64-1.43-3.15-5.53-3.24-7.72a6,6,0,1,0,9.72,5.76C244.75,85.07,242.19,86.55,240.19,85.46Z" style="fill:#383838"/><path d="M183.14,302.19c7.56,6.42,6.46,20,5.27,27.17a19.77,19.77,0,1,0-27.55-25.2C168.13,300.39,177.39,297.3,183.14,302.19Z" style="fill:#fff"/><path d="M77.62,102.81c-1.16.78-4.4,1.19-7.87,1.27-4.7.15-9.92-.34-11.3-1.27-2.24-1.49-3.21-25.44-.63-30.7a2.05,2.05,0,0,1,.63-.86l.6-.07c.3,0,.71,0,1.23-.07,4.63-.41,16.6-1.31,17.35.15C78.52,73,80.35,100.87,77.62,102.81Z" style="fill:#fff"/><path d="M68.44,105.13c-4.52,0-9.12-.55-10.55-1.49-2.16-1.42-2.54-12.45-2.61-15.79-.09-4.61,0-15.55,2.58-17.41l.22-.16.27,0c18.94-1.83,19.85,0,20.15.54.79,1.53,3.24,30.34-.31,32.84C76.7,104.66,72.6,105.13,68.44,105.13ZM58.89,72.21c-.27.39-.9,1.67-1.3,5.66-1,9.59.23,22.83,1.45,24.13,2,1.34,15.57,1.68,18,0,1.94-2,.71-27-.27-30.15C75.24,71.15,66.5,71.49,58.89,72.21Z" style="fill:#fff"/><path d="M75.91,99.3c1,4.46-6.15,4.77-6.15,4.77-4.7.15-9.92-.34-11.3-1.27-2.24-1.49-3.21-25.44-.63-30.7,0,0,2.76,12.65,4.44,15s7.31,1.75,7.61,2.69-5.15.93-6.86,3.58.3,5.89,1.42,6.75a5.9,5.9,0,0,0,7.68,0c3.25-2.43,2.2-4.59,2.2-4.59C75.14,95.55,76.2,97.77,75.91,99.3Z" style="fill:#383838"/><path d="M67.65,97.2c-2.31-1-1-3.3-1.08-4.36a3.84,3.84,0,1,0,5.54,3.42c0-.08,0-.15,0-.23C70.69,96.88,70,98.25,67.65,97.2Z" style="fill:#383838"/><path d="M67.65,85.29c-2.64-1.43-3.15-5.53-3.24-7.72a6,6,0,1,0,9.72,5.76C72.21,84.89,69.66,86.38,67.65,85.29Z" style="fill:#383838"/><path d="M208.62,112.07S188.13,93,156,94.74s-43,7.31-42.2,8.34,68.32-7.36,67.85,6.7S213.91,125.75,208.62,112.07Z" style="fill:#fff"/><path d="M184.56,120.42s12.12,8.08,20.44,4.2,7.15-7.62,7.15-7.62,4.12,5.44,4.74,9.64-4.2,11-15.54,9.64S184.56,120.42,184.56,120.42Z" style="fill:#fff"/><path d="M99.88,149.45c1.76,0,9.33,23.33,20.67,26.13s16.16.93,14.61,6.84-15.45,1.86-24.51-7.46S98.12,149.45,99.88,149.45Z" style="fill:#fff"/><path d="M137,178.86s1.86,2.64,1.4,4.2-2.95,3.42-2.95,3.42,5.9.31,5.9-3.81S137,178.86,137,178.86Z" style="fill:#fff"/><path d="M142.37,180.27s1.86,2.64,1.4,4.2-2.95,3.42-2.95,3.42,5.9.31,5.9-3.81S142.37,180.27,142.37,180.27Z" style="fill:#fff"/><circle cx="107.49" cy="115.32" r="6.4" style="fill:#fff"/><path d="M74.13,120.11l-.14.63c-.54,2.48-2.41,11.74-1.88,17.56.62,6.76,3.54,17.72,2,18.42s-2.81-.47-3.62-2.8-2.21-30.55,0-32.35,3.8-2.32,3.57-1.23S74.13,120.11,74.13,120.11Z" style="fill:#fff"/><path d="M229.88,119.73s-.22,2.95-.23,10.2,3.91,7.71,6,8.39S241.63,118.12,229.88,119.73Z" style="fill:#fff"/><path d="M212.37,256l.48-1a8.73,8.73,0,0,0-.37,1c-.15.41-.26.71-.34.89Z" style="fill:#fff"/><path d="M101.09,251.6V242L97,252.54l1.46-14.92L93.89,251.9l1.16-17L88.4,253.77l5.49-26.71L80,255l10.26-33.8L74.12,255l11.6-38L67.66,255l12.38-38L59,255l17-40-21.75,37,15.07-33.24L47.15,251.9l15.11-35L42.48,250.37l13.8-31.11L37.41,247.39l13.32-26.22L33.31,243.84l9.18-18.69-14,17.23,7.8-14.1s-6.15,6.45-9.74,10.63c1.34-5.71,6.15-15.33,22.87-20.85,11.75-3.84,28.24-6.23,37.86-7.43l7.27,14.51,9.81,19.62Z" style="fill:#fff"/><path d="M299.21,228.59l-3.66,8.92V225.15l-4.66,13.69V225.15l-5.3,16.19V225.15l-8.4,22.08,2.8-22.08-10.82,26.15,5.22-26.15-12.53,33.68,5.6-32.12-12.91,39.09,7.31-36.59-15.44,39.13,8.13-40.07L240.2,268.35l8.32-43.2-13.58,40.66,8.69-42.56-14,38.61,8.32-40.7L222.81,259.1l11-39.84-15.41,33.57,11.49-33.57-13.06,25.66-3,5.93c.75-2.05,12.8-35,16.86-42.64.6-1.08,1-1.68,1.23-1.53,13.76,1.9,51.67,7.83,62.15,16A19,19,0,0,1,299.21,228.59Z" style="fill:#fff"/><path d="M300.55,232.88a11.69,11.69,0,0,1-.45,4.63l.26-5.82C300.44,232.06,300.51,232.47,300.55,232.88Z" style="fill:#fff"/><path d="M365.33,212s1.87-8,13.52-8.24,32.87,4.43,40.1,15.16-8.62,40.51-17.48,40.77-15.18-7.09-15.18-7.09-15.6,6.59-26.32-2.44C352,247.09,360.71,217.81,365.33,212Z" style="fill:#fff"/><path d="M331.76,180.26s1.87-2.81,6.06-1.4,7.69,7.63,7.69,7.63-6.29-6.69-8.63-6.22A16.73,16.73,0,0,1,331.76,180.26Z" style="fill:#fff"/><path d="M382.82,155.78s1.27-4.8,6-4,4.07,6.73,4.07,6.73a13.52,13.52,0,0,0-4.47-4.87C385.67,152.18,382.82,155.78,382.82,155.78Z" style="fill:#fff"/><path d="M409.44,159.19s1.27-4.8,6-4,4.07,6.73,4.07,6.73a13.52,13.52,0,0,0-4.47-4.87C412.29,155.6,409.44,159.19,409.44,159.19Z" style="fill:#fff"/><path d="M423.45,166.14s1.27-4.8,6-4,4.07,6.73,4.07,6.73A13.52,13.52,0,0,0,429,164C426.31,162.55,423.45,166.14,423.45,166.14Z" style="fill:#fff"/><path d="M435.55,183.31s1.27-4.8,6-4,4.07,6.73,4.07,6.73a13.5,13.5,0,0,0-4.47-4.87C438.4,179.72,435.55,183.31,435.55,183.31Z" style="fill:#fff"/><path d="M329.09,290.85s-27.94,73-39.66,70.8S303,299.8,303,299.8s-15.52,23.61-24.21,18,5.3-41.59,5.3-41.59l15.15-32.38,3.39-1.94a12.44,12.44,0,0,1-1.53,2.31l0,0s11.49,8,15.52,16.23S329.09,290.85,329.09,290.85Z" style="fill:#fff"/><path d="M355.69,274.32c-3.54,2.69-12,0-12,0,4.74-3.13,5-3.47,5-3.51l3.5-5.22S359.27,271.64,355.69,274.32Z" style="fill:#fff"/><path d="M397.21,281.33c-1.31,2.2.11,5.22,1.45,9.7-4.59-2.57-13.73-8.17-10.82-11,2.05-2,7.2-1.16,12,.3C398.81,280.22,398,280.1,397.21,281.33Z" style="fill:#fff"/><path d="M347.11,258.28s17.14,10.23,27.08,9.55S386,263.07,386,263.07s-2.49,6.3,5,6.59a38.61,38.61,0,0,0,13.28-1.83l.48,2.72s-12.57,2.5-16.89,1.88a5.65,5.65,0,0,1-5-4.08,26,26,0,0,1-10.74,2.2c-5.35-.3-19.93-5-19.93-5Z" style="fill:#fff"/><path d="M114.78,273.67s96.1-6.83,96.65-.25,3.92,55.09,3.92,55.09-3.36-49.91-15-51.77S114.78,273.67,114.78,273.67Z" style="fill:#fff"/><path d="M263.68,314.74l-46.24-30.5c2.17,22.78,4.06,63.4,3.62,70.67-1.38.62-.19,6.77-.19,6.77l-7.19,16.66s30.88,11,30.63,10.66,15.58-9.9,15.58-9.9S275.91,377.74,263.68,314.74Z" style="fill:#fff"/><path d="M121.23,221.16s-12.41,6.43-1.2,15.28,34.75,8,40.83,7.24,23.08-4.9,23.08-4.9l-5.83-12.12-13-1.49Z" style="fill:#fff"/><path d="M274,376.38s-8.94-29.67-7.08-41.17c-7-13.43-3.25-20.48-3.25-20.48s14.76,21.74,14.76,21.89-.31,24.4,0,25S274,376.38,274,376.38Z" style="fill:#383838"/><polygon points="219.92 290.39 259.71 314.72 259.71 318.63 220.15 293.45 219.92 290.39" style="fill:#383838"/></g><rect y="498" width="345" height="14" style="fill:#00c853"/></g></g></svg>