<svg xmlns="http://www.w3.org/2000/svg" viewBox="0 0 64.86 86.63"><title>Asset 7</title><g id="Layer_2" data-name="Layer 2"><g id="badges"><g id="_2" data-name="2"><polygon points="8.6 14.56 6.84 13.75 5.18 14.74 5.41 12.82 3.96 11.54 5.85 11.17 6.62 9.39 7.56 11.08 9.49 11.26 8.17 12.68 8.6 14.56" style="fill:#383838"/><polygon points="23.52 5.49 22.33 5.04 21.19 5.61 21.36 4.53 20.38 3.81 21.67 3.59 22.2 2.59 22.84 3.53 24.15 3.62 23.24 4.43 23.52 5.49" style="fill:#383838"/><polygon points="3.37 34.4 2.11 33.82 0.92 34.53 1.08 33.15 0.04 32.24 1.4 31.97 1.95 30.7 2.63 31.91 4 32.03 3.06 33.05 3.37 34.4" style="fill:#383838"/><polygon points="18.64 33.43 16.89 32.62 15.22 33.6 15.45 31.68 14 30.41 15.9 30.03 16.66 28.26 17.61 29.94 19.53 30.12 18.22 31.54 18.64 33.43" style="fill:#383838"/><polygon points="4.64 50.77 2.89 49.96 1.22 50.94 1.45 49.02 0 47.75 1.9 47.37 2.66 45.6 3.6 47.28 5.53 47.46 4.22 48.88 4.64 50.77" style="fill:#383838"/><polygon points="8.6 14.56 6.84 13.75 5.18 14.74 5.41 12.82 3.96 11.54 5.85 11.17 6.62 9.39 7.56 11.08 9.49 11.26 8.17 12.68 8.6 14.56" style="fill:#fff"/><polygon points="23.52 5.49 22.33 5.04 21.19 5.61 21.36 4.53 20.38 3.81 21.67 3.59 22.2 2.59 22.84 3.53 24.15 3.62 23.24 4.43 23.52 5.49" style="fill:#fff"/><polygon points="3.37 34.4 2.11 33.82 0.92 34.53 1.08 33.15 0.04 32.24 1.4 31.97 1.95 30.7 2.63 31.91 4 32.03 3.06 33.05 3.37 34.4" style="fill:#fff"/><polygon points="18.64 33.43 16.89 32.62 15.22 33.6 15.45 31.68 14 30.41 15.9 30.03 16.66 28.26 17.61 29.94 19.53 30.12 18.22 31.54 18.64 33.43" style="fill:#fff"/><polygon points="4.64 50.77 2.89 49.96 1.22 50.94 1.45 49.02 0 47.75 1.9 47.37 2.66 45.6 3.6 47.28 5.53 47.46 4.22 48.88 4.64 50.77" style="fill:#fff"/><polygon points="56.26 14.65 58.01 13.85 59.68 14.83 59.45 12.91 60.9 11.63 59 11.26 58.24 9.48 57.29 11.17 55.37 11.35 56.68 12.77 56.26 14.65" style="fill:#fff"/><polygon points="41.34 5.58 42.53 5.13 43.67 5.7 43.5 4.62 44.48 3.91 43.19 3.68 42.66 2.68 42.02 3.62 40.71 3.71 41.62 4.52 41.34 5.58" style="fill:#fff"/><polygon points="61.49 34.49 62.75 33.91 63.94 34.62 63.77 33.24 64.81 32.33 63.46 32.06 62.91 30.79 62.23 32 60.85 32.12 61.79 33.14 61.49 34.49" style="fill:#fff"/><polygon points="46.22 33.52 47.97 32.71 49.63 33.7 49.41 31.77 50.86 30.5 48.96 30.12 48.2 28.35 47.25 30.04 45.33 30.21 46.64 31.63 46.22 33.52" style="fill:#fff"/><polygon points="60.22 50.86 61.97 50.05 63.63 51.03 63.41 49.12 64.86 47.84 62.96 47.46 62.2 45.69 61.25 47.37 59.33 47.55 60.64 48.97 60.22 50.86" style="fill:#fff"/><path d="M24.4,76.59l-.15,0-19-3.87a.84.84,0,0,1-.68-.79l0-.66C4.47,70.07,4.3,64,6.1,61.52A82.34,82.34,0,0,1,12,55.35c3-3,7.05-7,7.81-8.25.86-1.41,3.35-14.34,5.26-26l.12-.71a.84.84,0,0,1,.83-.71h13.8a.84.84,0,0,1,.83.69l.13.69c2.12,11.58,4.82,24.76,5.57,26.45.35.33,1.13,1,2.09,1.89C57.69,57.69,61,60.95,61.51,62.28c.76,1.9,1.41,7.39,1.54,8.48l.09.76a.84.84,0,0,1-.65.92L42.93,76.87l-.19,0Z" style="fill:#fff"/><path d="M24.41,75.75l-19-3.87,0-.66c0-.7-.25-6.89,1.43-9.21.72-1,3.09-3.35,5.84-6.08,3.17-3.14,7.11-7.05,7.92-8.39,1.07-1.76,3.79-16.71,5.37-26.34l.12-.71h13.8l.13.69c1.76,9.61,4.86,25.3,5.71,26.81.29.28,1.14,1,2.21,2,7.53,6.79,12.31,11.26,12.84,12.59.76,1.9,1.46,8,1.48,8.27l.08.75L42.74,76Z" style="fill:#383838"/><path d="M61.38,70.95,42.66,75.2l-18.15-.3-.85-.17L6.2,71.18s-.28-6.54,1.27-8.68S19.73,50.51,21.28,48C22.46,46,25,31.4,26.2,24.69c.35-2,.56-3.35.56-3.35H39.13S43.92,47.44,45,48.55,59.22,61.08,59.94,62.9,61.38,70.95,61.38,70.95Z" style="fill:#fff"/><path d="M40.78,17.6C40.87,9.68,34.32,1.54,34,1.19L33.31.31A.88.88,0,0,0,32.63,0h0a.87.87,0,0,0-.69.34l-.67.92c-.24.33-5.8,8.09-6.09,16,0,1-.06,2.39-.08,4.11l7-5.8,8.74,5.8C40.85,19.35,40.82,18,40.78,17.6Z" style="fill:#fff"/><path d="M25.91,66.46v-.84c0-.38-.28-38,0-46.39.29-8.58,5.73-17,6-17.37l.67-1,.72,1c.27.37,6.67,9.23,6.58,17.79.24,2.74,0,44.23,0,46v.84Z" style="fill:#383838"/><path d="M32.58,2.33S27,10.82,26.75,19.27s0,46.35,0,46.35H39s.25-44,0-46C39.11,11.26,32.58,2.33,32.58,2.33Z" style="fill:#fff"/><path d="M23.18,79.37l0-.82c-.42-13.82,2.78-15.45,3.42-15.63l.07,0h.08c.15,0,3.66-.35,7.09-.35a18.4,18.4,0,0,1,5.51.58c3.42,1.19,3.34,12.12,3.24,15.44l0,.82Z" style="fill:#383838"/><path d="M24,78.46l17.73.12S42.2,65,39.11,63.95s-12.24-.26-12.24-.26S23.62,64.6,24,78.46Z" style="fill:#fff"/><path d="M32.13,86.63a.84.84,0,0,1-.84-.73L29.41,71.67a.84.84,0,0,1,0-.31l1.88-7.83a.85.85,0,0,1,.82-.65h.1a.84.84,0,0,1,.74.84V85.79a.84.84,0,0,1-.79.84Z" style="fill:#383838"/><polygon points="32.13 63.73 32.13 85.79 30.25 71.56 32.13 63.73" style="fill:#fff"/><path d="M33.67,86.63a.85.85,0,0,0,.84-.73l1.88-14.23a.82.82,0,0,0,0-.31l-1.88-7.83a.85.85,0,0,0-.82-.65h-.1a.84.84,0,0,0-.74.84V85.79a.84.84,0,0,0,.79.84Z" style="fill:#383838"/><polygon points="33.67 63.73 33.67 85.79 35.55 71.56 33.67 63.73" style="fill:#fff"/><path d="M28.37,14.2v2.53s1.8-2.18,3.93-2.18,4.52,2.18,4.52,2.18V14.2s-2.7-1.9-4.52-1.9S28.37,14.2,28.37,14.2Z" style="fill:#383838"/><rect x="30.3" y="18.02" width="1.41" height="1.32" style="fill:#383838"/><rect x="33.34" y="18.02" width="1.41" height="1.32" style="fill:#383838"/><path d="M28.75,9.79l-.26-1a21.66,21.66,0,0,1,4.38-.7,20.85,20.85,0,0,1,4.33.7l-.26,1a20.29,20.29,0,0,0-4.06-.67A21.09,21.09,0,0,0,28.75,9.79Z" style="fill:#383838"/><polygon points="29.83 6.62 35.58 6.62 32.71 1.6 29.83 6.62" style="fill:#383838"/><polygon points="5.82 71.64 6.93 65.09 6.66 71.64 7.67 65.09 7.67 72.06 8.46 65.09 8.46 72.06 9.35 65.09 9.35 72.22 10.2 65.09 10.2 72.35 10.99 65.22 10.81 72.51 11.78 65.09 11.6 72.69 12.57 65.09 12.31 72.69 13.29 65.09 13.05 72.85 14 65.09 13.6 73.06 14.66 65.09 14.26 73.22 15.29 65.09 15.03 73.22 15.93 65.09 15.66 73.35 16.59 65.09 16.21 73.56 17.27 65.09 16.98 73.56 17.96 65.09 17.64 73.88 18.7 65.09 18.27 74.09 19.41 65.09 18.93 74.22 20.02 65.09 19.62 74.22 20.62 65.09 20.23 74.41 21.18 65.09 20.83 74.54 21.76 65.09 21.49 74.76 22.44 65.09 22.1 74.91 23.12 65.09 22.68 74.91 23.74 65.09 23.52 74.41 23.37 75.2 5.82 71.8 5.82 71.64" style="fill:#383838"/><polygon points="61.62 71.15 60.1 64.67 60.69 71.2 59.29 64.71 59.6 71.67 58.41 64.75 58.73 71.71 57.43 64.79 57.75 71.91 56.5 64.83 56.82 72.08 55.63 65.01 56.16 72.27 54.75 64.91 55.3 72.5 53.88 64.95 54.51 72.53 53.1 64.99 53.71 72.73 52.31 65.02 53.11 72.97 51.59 65.06 52.39 73.16 50.89 65.09 51.55 73.19 50.19 65.12 50.85 73.36 49.46 65.15 50.25 73.6 48.71 65.19 49.41 73.63 47.95 65.22 48.7 73.98 47.14 65.26 48.01 74.22 46.35 65.29 47.29 74.39 45.69 65.32 46.53 74.42 45.02 65.35 45.87 74.64 44.41 65.38 45.21 74.8 43.77 65.41 44.49 75.05 43.01 65.44 43.83 75.23 42.27 65.48 43.19 75.26 41.59 65.51 42.24 74.8 42.45 75.59 61.62 71.31 61.62 71.15" style="fill:#383838"/><polygon points="27.18 19.99 29.4 24.45 29.4 62.23 27.18 62.23 27.18 19.99" style="fill:#383838"/><polygon points="38.35 19.99 36.12 24.45 36.12 62.08 38.35 62.23 38.35 19.99" style="fill:#383838"/><polygon points="24.82 71.37 24.55 77.81 29.4 77.81 24.82 71.37" style="fill:#383838"/><polygon points="40.73 71.57 40.99 78.01 36.14 78.01 40.73 71.57" style="fill:#383838"/><path d="M22,48.36S8.56,62.15,8.14,62.88a3.23,3.23,0,0,0-.39,1.54H9.93S21.89,50.95,22,48.36Z" style="fill:#383838"/><path d="M44.08,48.36S58.48,62.15,58.9,62.88a3.23,3.23,0,0,1,.4,1.54H57.1S44.16,50.95,44.08,48.36Z" style="fill:#383838"/><circle cx="20.37" cy="60.08" r="2.66" style="fill:#383838"/><circle cx="45.33" cy="60.08" r="2.66" style="fill:#383838"/></g></g></g></svg>