<svg xmlns="http://www.w3.org/2000/svg" viewBox="0 0 86.9 92.75"><title>Asset 5</title><g id="Layer_2" data-name="Layer 2"><g id="badges"><g id="_1" data-name="1"><polygon points="5.51 36.07 4.4 35.16 3.02 35.56 3.54 34.22 2.74 33.03 4.17 33.12 5.05 31.99 5.42 33.38 6.76 33.87 5.55 34.64 5.51 36.07" style="fill:#fff"/><polygon points="20.4 18.05 19 17.76 17.96 18.74 17.81 17.32 16.55 16.63 17.86 16.05 18.13 14.64 19.09 15.71 20.51 15.52 19.79 16.76 20.4 18.05" style="fill:#fff"/><polygon points="74.7 14.32 73.3 14.02 72.26 15.01 72.11 13.58 70.85 12.9 72.16 12.31 72.42 10.91 73.38 11.97 74.8 11.79 74.08 13.03 74.7 14.32" style="fill:#fff"/><polygon points="8.6 60.02 7.2 59.72 6.16 60.71 6.01 59.28 4.75 58.59 6.06 58.01 6.33 56.6 7.28 57.67 8.71 57.49 7.99 58.73 8.6 60.02" style="fill:#fff"/><polygon points="27.13 67.37 25.72 67.07 24.68 68.06 24.53 66.63 23.28 65.94 24.59 65.36 24.85 63.96 25.81 65.02 27.23 64.84 26.51 66.08 27.13 67.37" style="fill:#fff"/><polygon points="59.78 32.73 58.38 32.43 57.34 33.41 57.19 31.99 55.93 31.3 57.24 30.72 57.51 29.31 58.46 30.38 59.88 30.19 59.17 31.43 59.78 32.73" style="fill:#fff"/><polygon points="86.59 56.76 85.18 56.46 84.14 57.44 84 56.02 82.74 55.33 84.05 54.75 84.31 53.34 85.27 54.41 86.69 54.22 85.97 55.46 86.59 56.76" style="fill:#fff"/><polygon points="82.98 25.13 81.58 24.83 80.54 25.81 80.39 24.39 79.13 23.7 80.44 23.12 80.7 21.71 81.66 22.78 83.08 22.59 82.36 23.83 82.98 25.13" style="fill:#fff"/><polygon points="61.03 14.8 59.63 14.5 58.59 15.48 58.44 14.06 57.18 13.37 58.49 12.79 58.76 11.38 59.71 12.45 61.13 12.26 60.42 13.5 61.03 14.8" style="fill:#fff"/><polygon points="47.72 3.42 46.32 3.12 45.28 4.1 45.13 2.68 43.88 1.99 45.19 1.41 45.45 0 46.41 1.07 47.83 0.88 47.11 2.12 47.72 3.42" style="fill:#fff"/><polygon points="70.21 67.37 68.81 67.07 67.77 68.06 67.62 66.63 66.36 65.94 67.67 65.36 67.94 63.96 68.9 65.02 70.32 64.84 69.6 66.08 70.21 67.37" style="fill:#fff"/><polygon points="29.55 79.82 28.15 79.52 27.11 80.5 26.96 79.08 25.7 78.39 27.01 77.81 27.27 76.4 28.23 77.47 29.65 77.28 28.94 78.52 29.55 79.82" style="fill:#fff"/><polygon points="38.53 25.05 39.75 25.05 39.95 27.87 38.69 27.87 38.53 25.05" style="fill:#383838"/><path d="M46.8,12.43a3.13,3.13,0,0,1-2.34,3.12,11.43,11.43,0,0,1-4.56-.14s4.29-.58,5.32-2.11a12.61,12.61,0,0,0,1.51-3.66A15.26,15.26,0,0,1,46.8,12.43Z" style="fill:#383838"/><path d="M79.58,52.06a7.65,7.65,0,0,0-1.28.65c.18.77.44,2.32-.2,2.86a1.2,1.2,0,0,1-.8.3l-.26,0H76.9v0c-.13.21,0,.63.19,1.16.08.24.17.52.25.81.35,1.29-1.52,10-4.89,16.35a14.43,14.43,0,0,1-9.63,7.37,2.15,2.15,0,0,1-.17.93,1.49,1.49,0,0,1-.22.37,2.18,2.18,0,0,1-1.7.75h-.44a3.7,3.7,0,0,1-3.17-2.41,1.15,1.15,0,0,1-.91.42,1.68,1.68,0,0,1-.6-.12c-1.35-.48-1.9-4.19-2.09-5.81a1.28,1.28,0,0,1-.38.05,1.36,1.36,0,0,1-.92-.36,8.72,8.72,0,0,1-1-3.25,3.62,3.62,0,0,1-1.47,2.83c0,.07.06.15.09.24A19.09,19.09,0,0,1,51.1,81.5c0,.21,0,.43,0,.64a24.88,24.88,0,0,1-1.63,7,2,2,0,0,1,.63.44l0,0,.1.11-.35.2L45,92.75.29,67.21,0,67v-.61a22.66,22.66,0,0,1,1.6-5.77,16.67,16.67,0,0,1,0-4.8,36.38,36.38,0,0,1,1.16-5.34,6.64,6.64,0,0,1-.36-3.27c.25-1.28,1.25-3.61,5.08-4.87a49,49,0,0,1,8.65-1.61l20.44-.71,6-.21h0c.29,0,4.67.55,8.63,1.45,2.46.57,4.76,1.28,5.84,2.13A3.73,3.73,0,0,1,58.66,46a3.55,3.55,0,0,1-.58,2.23A10.51,10.51,0,0,1,61,51.35c.58,1.2,1.62,3.81,2.15,5.18a6.28,6.28,0,0,1,2-2.2c1.11-.72,1.41-.94,1.5-1l.54-.8a6.14,6.14,0,0,0-.81-1.15c-.58-.58.16-1.73.72-2.41a2.9,2.9,0,0,1-.92-2.48c.18-1.36-1.37-7.21-2.21-8.33-.64-.85-1.43-1.9-1.09-2.77a1.72,1.72,0,0,1,1.43-.93l.27,0c1.26,0,2.35,1.59,3.41,3.12.55.8,1.37,2,1.73,2,.36-.21.85-2.08,1.2-3.45.85-3.25,1.81-6.93,3.82-6.93a1.68,1.68,0,0,1,.32,0,1.58,1.58,0,0,1,1.07.75c.91,1.45.09,4.63-.54,7l.34-.79c1.59-3.68,2.82-6.29,4-6.29l.15,0a2,2,0,0,1,1.56,1.47,1.17,1.17,0,0,1,.78-.28,2.14,2.14,0,0,1,1.06.35,3.22,3.22,0,0,1,1.21,3.33,1.48,1.48,0,0,1,.66-.17c.47,0,1.11.27,1.47,1.54C87.61,38.86,80.75,51.58,79.58,52.06Z" style="fill:#fff"/><path d="M79.43,51.69a7.58,7.58,0,0,0-1.59.85h0c0,.16.55,2.18,0,2.69h0a.88.88,0,0,1-.76.2h0c-.21,0-.38,0-.52.2-.26.44,0,1,.29,1.92,0,.11.07.24.11.36C77.24,59,75.47,67.64,72.09,74a14.11,14.11,0,0,1-9.71,7.23s.49,2.08-2.08,2-3.17-3.27-3.17-3.27,0,1.68-1.39,1.19c-.83-.29-1.34-2.41-1.62-4-.19-1.11-.27-2-.27-2a1.08,1.08,0,0,1-1.39,0A3.26,3.26,0,0,1,52,73.8c-.6-2.55-1.23-7.94-1.23-7.94s.1,3.47.1,5.84a3.19,3.19,0,0,1-1.59,3.07l.09.21a20.24,20.24,0,0,1,.77,2.47,15.81,15.81,0,0,1,.52,4.65,24.72,24.72,0,0,1-1.79,7.33.72.72,0,0,1,.36.05,1.5,1.5,0,0,1,.6.43L45,92.75,33,85.88l0,0-9.14-5.22L12.75,74.32.29,67.21a3.19,3.19,0,0,1,0-.38A21.64,21.64,0,0,1,2,60.71a15.32,15.32,0,0,1,0-4.79,36.28,36.28,0,0,1,1.19-5.4h0a6.4,6.4,0,0,1-.4-3.17c.3-1.49,1.49-3.47,4.83-4.57a45.92,45.92,0,0,1,7.84-1.51l.73-.08,26.34-.91s.58.07,1.49.2c3.2.44,10.63,1.61,12.8,3.3a3,3,0,0,1,1,4.1,2.46,2.46,0,0,1-.3.46h0a11.15,11.15,0,0,1,3.07,3.21c.79,1.62,2.48,6,2.48,6a6,6,0,0,1,2.27-2.87l.61-.4a6.76,6.76,0,0,0,1-.69l.69-1h0a6.92,6.92,0,0,0-1-1.44c-.49-.49,1-2.18,1-2.18l-.18-.14a2.58,2.58,0,0,1-.91-2.24c.2-1.48-1.39-7.43-2.28-8.62s-2-2.68.1-3.08,4.27,5.75,5.56,5.05S72,29,75,29.59s-.8,9.42-.2,9.62S78.34,30,80,30.28c1.44.25,1.42,2,1.39,2.53.06-.47.36-2,1.87-1,1.73,1.06.85,3.78.8,4,.12-.14,1.71-1.87,2.38.5S80.42,51.29,79.43,51.69Z" style="fill:#383838"/><path d="M43.85,40.88,39,53.08C38,53,36.32,53,33.83,53H33l.11-.41,1.38-1.36c-.35.08-7.42,1.84-7.87.86s5.58-4.19,6-4.42c-.3.1-4,1.22-5.36,0s0-3.13,0-3.13,4.57-2.16,9.37-4.46l6-.21h0c.29,0,4.67.55,8.63,1.45l-.18.87C48.33,41.55,45.36,41.09,43.85,40.88Z" style="fill:#fff"/><path d="M12,80.72l0-.07v.07Z" style="fill:#fff"/><path d="M49.26,89.5l-.36-.05A.74.74,0,0,1,49.26,89.5Z" style="fill:#fff"/><path d="M49.3,74.78a19.06,19.06,0,0,1,.86,2.69L42,78.25,23.81,80.64,12.75,74.32a4.07,4.07,0,0,1,0-.68l-.88-12.37-.1-1.39,10.2-5.74.31-.17,16-.46.55.36,11.74,7.7h0l.29,4.27s.1,3.47.1,5.84A3.19,3.19,0,0,1,49.3,74.78Z" style="fill:#383838"/><path d="M22.24,54.76,11.83,61.26,3.21,50.51h0a6.45,6.45,0,0,1-.39-3.18c.3-1.49,1.49-3.47,4.82-4.56a46.45,46.45,0,0,1,7.84-1.52l6.45,12.9Z" style="fill:#fff"/><path d="M50.69,82.11a24.72,24.72,0,0,1-1.79,7.33.72.72,0,0,1,.36.05,1.5,1.5,0,0,1,.6.43L45,92.75,33,85.88l0,0s-1.91-1.39-.25-2.5,4.61-2.85,4.61-2.85-7.75,1.86-7.52,0,7.15-3.7,7.15-3.7-6.21-.81-6.68-2.22.13-2,.36-2c1.17,0,4.91-.21,6.69-.48,2.12-.33,4.35-.6,4.35-.6A19.9,19.9,0,0,0,45,74.45c1.24.75,3.43.63,4.34.54a20.24,20.24,0,0,1,.77,2.47A15.81,15.81,0,0,1,50.69,82.11Z" style="fill:#fff"/><path d="M21.72,54.61l-9.8,6.13L3.56,50.32A6.07,6.07,0,0,1,3.2,47.4s0-.09,0-.14c.27-1.13,1.22-3,4.52-4.12a44.79,44.79,0,0,1,7.49-1.47l1.44,2.87,1.94,3.88,2.89,5.77Z" style="fill:#383838"/><path d="M57.53,48.3h0l-7,13.28-.35.66L38.4,54.76l.35-.88L44,40.45c3.2.44,10.64,1.61,12.79,3.3A3,3,0,0,1,57.53,48.3Z" style="fill:#fff"/><path d="M57.43,46.07a2.31,2.31,0,0,1-.09.91A3.14,3.14,0,0,1,56.8,48l0,.05,0,0L53.65,54,50.29,60.3h0l-.73,1.37L38.44,54.6l1.48-3.76v0l.07-.18.09-.23.06-.13.72-1.82,3-7.56c2.72.38,10.22,1.55,12.29,3.17a3.75,3.75,0,0,1,1,1.16,2.14,2.14,0,0,1,.23.61C57.41,45.9,57.42,46,57.43,46.07Z" style="fill:#383838"/><path d="M18,53.51s.2,17.3,1.59,18.1,22.35,0,22.47-1.09-.51-16.94-1.18-17.59S19.17,52.56,18,53.51Z" style="fill:#fff"/><path d="M41.65,70.35a2.81,2.81,0,0,1-.58.18q-.42.09-1.06.18a137.77,137.77,0,0,1-15.5.83c-4.13,0-4.7-.24-4.75-.27-.71-.64-1.23-8.62-1.37-16.42,0-.36,0-.73,0-1.09a32.27,32.27,0,0,1,5.32-.52c2.85-.15,6.49-.25,10.14-.25a45.75,45.75,0,0,1,6.74.26c.32.86.69,6.3.9,10.86,0,0,0,0,0,0,0,.26,0,.52,0,.77.07,1.6.12,3,.14,4.08h0C41.67,69.6,41.67,70.08,41.65,70.35Z" style="fill:#383838"/><path d="M28.29,44.54c-7.24,0-11.28-2.27-12.09-3.37A.75.75,0,0,1,16,40.5a1.14,1.14,0,0,1,.6-.71,2,2,0,0,1-.49-1.16,1,1,0,0,1,.56-.89c-.46-.6-1.27-1.67-1.76-2.43A21.22,21.22,0,0,1,13.42,32h-.14a2.68,2.68,0,0,1-1.4-.46c-1.3-.81-.81-7.25-.51-7.78a2.45,2.45,0,0,1,1.47-.89V22a9.55,9.55,0,0,0-2.59-.3,4.78,4.78,0,0,1-2.14-.29c-.73-.55-.4-5.68-.4-5.73.19-2.55.58-2.76.76-2.86a9.21,9.21,0,0,1,3.1-.38,6,6,0,0,1,2.77.42c.35.29.47,1,.64,2.12.06.38.14.93.24,1.32C16,14.47,18.77,10,28.6,9.69h.78c9.28,0,12,4.61,12.84,6.19.08-.3.15-.69.21-1,.21-1.11.36-1.81.72-2.08A3.74,3.74,0,0,1,45,12.52c.28,0,2.8,0,3.43.65.79.79.29,7.36.08,7.89-.13.32-.49.67-3.13.67-.58,0-1.12,0-1.46,0v1a2.14,2.14,0,0,1,1.54.91c.44.8.37,6,0,6.91s-1.25.93-1.84.95a15,15,0,0,1-.84,2.32,19.22,19.22,0,0,1-1.48,2.47A2.14,2.14,0,0,1,42.1,38a2.18,2.18,0,0,1-.57,1.12c.53.22,1.08.58,1,1.12-.1.87-5.56,4.22-14,4.29Z" style="fill:#fff"/><path d="M48.19,20.91c-.26.63-4.63.38-4.63.38v1.78s1.2.06,1.59.76.32,5.76,0,6.59-1.78.69-1.78.69a15.31,15.31,0,0,1-.89,2.55,20.54,20.54,0,0,1-1.65,2.69s1,.78.89,1.6a2.19,2.19,0,0,1-1,1.34s1.46.38,1.39.92-5.26,3.89-13.62,4S16.2,41.25,16.39,40.61s.94-.59.94-.59-.82-.74-.82-1.39.82-.69.82-.69-1.39-1.77-2.09-2.85a24.29,24.29,0,0,1-1.59-3.59s-.57.3-1.58-.33-.7-6.71-.38-7.28,1.52-.77,1.52-.77v-1.2c0-.82-4.37-.44-4.88-.82s-.44-7.54.32-8,4.88-.47,5.45,0,.51,4.09,1.27,4c0,0,1-5.07,9.08-6.6h0a26.65,26.65,0,0,1,4.16-.42c9-.24,11.92,3.71,13,5.58.37.62.53,1,.64.94.44-.25.58-3.11,1.08-3.48s4.25-.26,4.82.32S48.44,20.27,48.19,20.91Z" style="fill:#383838"/><path d="M47.46,20.37a3.81,3.81,0,0,1-1.56.25,5.71,5.71,0,0,1-2.24-.25c-.44-.3-.63-5-.13-6.07a.41.41,0,0,1,.13-.17H44c.91-.08,3.28-.26,3.43,0S48,20,47.46,20.37Z" style="fill:#fff"/><path d="M45.65,20.83a5.31,5.31,0,0,1-2.09-.29c-.43-.28-.5-2.46-.52-3.12,0-.91,0-3.08.51-3.44l0,0h.05c3.75-.36,3.93,0,4,.11.16.3.64,6-.06,6.5A4.36,4.36,0,0,1,45.65,20.83Zm-1.89-6.51a2.63,2.63,0,0,0-.26,1.12,13.69,13.69,0,0,0,.29,4.77,7.13,7.13,0,0,0,3.56,0c.38-.39.14-5.34-.05-6A15.57,15.57,0,0,0,43.76,14.32Z" style="fill:#fff"/><path d="M29.81,39.21h-.58c-12.68-.36-13.32-8-13.67-12.06,0-.36-.06-.7-.09-1a8.12,8.12,0,0,1,2.11-5.22c2.16-2.42,5.66-3.65,10.4-3.65.43,0,.88,0,1.34,0,5.34.25,9.15,1.63,11.31,4.11a6.8,6.8,0,0,1,1.79,4.69c0,.47.16,5.91-3.41,9.67C36.82,38,33.73,39.21,29.81,39.21Z" style="fill:#fff"/><path d="M15.85,26.09c0-.2,0-9,13.45-8.41S42,26.09,42,26.09s.66,13.12-12.78,12.73S16.27,29.84,15.85,26.09Z" style="fill:#383838"/><path d="M41.65,15.66c-.18,1.13-2.77,1-2.77,1s-7,.55-7.78-.11,4.49-1.53,5.11-1.63c-.73.06-7.64.6-9,0S30,12.69,30,12.69s-6.41.74-7.28,0,1.53-2.09,1.7-2.18h0a26.65,26.65,0,0,1,4.16-.42C37.57,9.84,40.54,13.79,41.65,15.66Z" style="fill:#fff"/><path d="M18.15,38.47S24.51,41,29.88,40.73c6.41-.09,10.26-4.25,10.93-3.19s-5.21,4.24-11,4.31S14.87,39.79,18.15,38.47Z" style="fill:#fff"/><path d="M17.81,40.26A30.06,30.06,0,0,0,28.95,42.4c6.23,0,11.29-3.13,12.17-2.41s-6.46,3.68-12,3.75S14.69,41.51,17.81,40.26Z" style="fill:#fff"/><path d="M47.12,19.68c.19.88-1.22.94-1.22.94a5.71,5.71,0,0,1-2.24-.25c-.44-.3-.63-5-.13-6.07a16.85,16.85,0,0,0,.88,3c.33.46,1.51.53,1.51.53a2.43,2.43,0,0,0-1.36.71,1.12,1.12,0,0,0,.28,1.34,1.17,1.17,0,0,0,1.52,0c.64-.48.48-.83.44-.91S47.18,19.38,47.12,19.68Z" style="fill:#383838"/><path d="M45.49,19.26c-.46-.21-.2-.65-.21-.86a.76.76,0,1,0,1.1.68s0,0,0,0C46.09,19.2,45.95,19.47,45.49,19.26Z" style="fill:#383838"/><path d="M33.72,61.37c.69.51.12,1.16.06,1.52a1.3,1.3,0,1,0-1.6-1.52s0,.05,0,.08C32.69,61.26,33,60.86,33.72,61.37Z" style="fill:#fff"/><path d="M21,56.94c.5.37.08.85,0,1.1a.94.94,0,1,0-1.16-1.1s0,0,0,.06C20.22,56.87,20.47,56.58,21,56.94Z" style="fill:#fff"/><path d="M21.21,60.16c.5.37.08.85,0,1.1a.94.94,0,1,0-1.16-1.1s0,0,0,.06C20.46,60.08,20.7,59.79,21.21,60.16Z" style="fill:#fff"/><path d="M21.39,63.78c.5.37.08.85,0,1.1a.94.94,0,1,0-1.16-1.1s0,0,0,.06C20.65,63.7,20.89,63.41,21.39,63.78Z" style="fill:#fff"/><path d="M21.21,67.47c.5.37.08.85,0,1.1a.94.94,0,1,0-1.16-1.1s0,0,0,.06C20.46,67.39,20.7,67.1,21.21,67.47Z" style="fill:#fff"/><path d="M45.49,16.9c-.52-.28-.62-1.09-.64-1.53a1.18,1.18,0,1,0,1.92,1.14C46.39,16.83,45.89,17.12,45.49,16.9Z" style="fill:#383838"/><path d="M34.21,59.78c1.5,1.27,1.28,4,1,5.37a3.91,3.91,0,1,0-5.45-5C31.24,59.42,33.07,58.81,34.21,59.78Z" style="fill:#fff"/><path d="M13.33,20.34a3.8,3.8,0,0,1-1.56.25,5.7,5.7,0,0,1-2.24-.25c-.44-.3-.63-5-.13-6.07a.41.41,0,0,1,.13-.17H9.9c.91-.08,3.28-.26,3.43,0S13.87,20,13.33,20.34Z" style="fill:#fff"/><path d="M11.52,20.8a5.3,5.3,0,0,1-2.09-.29c-.43-.28-.5-2.46-.52-3.12,0-.91,0-3.08.51-3.44l0,0h.05c3.75-.36,3.93,0,4,.11.16.3.64,6-.06,6.5A4.36,4.36,0,0,1,11.52,20.8ZM9.63,14.28a2.63,2.63,0,0,0-.26,1.12,13.68,13.68,0,0,0,.29,4.77,7.13,7.13,0,0,0,3.56,0c.38-.39.14-5.34-.05-6A15.57,15.57,0,0,0,9.63,14.28Z" style="fill:#fff"/><path d="M13,19.64c.19.88-1.22.94-1.22.94a5.7,5.7,0,0,1-2.24-.25c-.44-.3-.63-5-.13-6.07a16.84,16.84,0,0,0,.88,3c.33.46,1.45.35,1.51.53s-1,.18-1.36.71a1.12,1.12,0,0,0,.28,1.34,1.17,1.17,0,0,0,1.52,0c.64-.48.44-.91.44-.91C12.84,18.9,13.05,19.34,13,19.64Z" style="fill:#383838"/><path d="M11.36,19.23c-.46-.21-.21-.65-.21-.86a.76.76,0,1,0,1.1.68s0,0,0,0C12,19.16,11.82,19.43,11.36,19.23Z" style="fill:#383838"/><path d="M11.36,16.87c-.52-.28-.62-1.09-.64-1.53a1.18,1.18,0,1,0,1.92,1.14C12.26,16.79,11.76,17.09,11.36,16.87Z" style="fill:#383838"/><path d="M39.25,22.17a15,15,0,0,0-10.42-3.43c-6.36.35-8.51,1.45-8.35,1.65S34,18.93,33.9,21.71,40.29,24.87,39.25,22.17Z" style="fill:#fff"/><path d="M34.49,23.82s2.4,1.6,4,.83,1.41-1.51,1.41-1.51A5.46,5.46,0,0,1,40.88,25c.12.83-.83,2.18-3.07,1.91S34.49,23.82,34.49,23.82Z" style="fill:#fff"/><path d="M17.74,29.56c.35,0,1.84,4.61,4.09,5.17s3.2.18,2.89,1.35-3.06.37-4.85-1.48S17.39,29.56,17.74,29.56Z" style="fill:#fff"/><path d="M25.08,35.38s.37.52.28.83a1.94,1.94,0,0,1-.58.68s1.17.06,1.17-.75S25.08,35.38,25.08,35.38Z" style="fill:#fff"/><path d="M26.14,35.66s.37.52.28.83a1.94,1.94,0,0,1-.58.68s1.17.06,1.17-.75S26.14,35.66,26.14,35.66Z" style="fill:#fff"/><circle cx="19.24" cy="22.81" r="1.27" style="fill:#fff"/><path d="M12.64,23.76l0,.12a14.31,14.31,0,0,0-.37,3.47c.12,1.34.7,3.5.4,3.64s-.56-.09-.72-.55-.44-6,0-6.4.75-.46.71-.24S12.64,23.76,12.64,23.76Z" style="fill:#fff"/><path d="M43.45,23.68s0,.58,0,2,.77,1.53,1.18,1.66S45.78,23.36,43.45,23.68Z" style="fill:#fff"/><path d="M40,50.63l.1-.2a1.73,1.73,0,0,0-.07.2l-.07.18Z" style="fill:#fff"/><path d="M18,49.77v-1.9L17.17,50l.29-3-.91,2.83.23-3.36L15.47,50.2l1.08-5.28-2.74,5.52,2-6.69-3.2,6.69,2.29-7.52-3.57,7.52,2.45-7.52L9.64,50.43,13,42.52l-4.3,7.31,3-6.57L7.31,49.83l3-6.91L6.38,49.53l2.73-6.15L5.38,48.94,8,43.75,4.57,48.23l1.82-3.7L3.62,47.95l1.54-2.79s-1.22,1.28-1.93,2.1c.27-1.13,1.22-3,4.52-4.12a44.79,44.79,0,0,1,7.49-1.47l1.44,2.87,1.94,3.88Z" style="fill:#fff"/><path d="M57.17,45.22,56.44,47V44.54l-.92,2.71V44.54l-1,3.2v-3.2l-1.66,4.37.55-4.37-2.14,5.17,1-5.17L49.78,51.2l1.11-6.35-2.55,7.73,1.45-7.24-3.05,7.74,1.61-7.93-2.84,7.93,1.65-8.55-2.69,8,1.72-8.42L43.4,51.8,45,43.75l-3,7.5,2.18-7.88-3,6.64,2.27-6.64-2.58,5.08-.6,1.17c.15-.41,2.53-6.93,3.34-8.43.12-.21.21-.33.24-.3,2.72.38,10.22,1.55,12.29,3.17A3.75,3.75,0,0,1,57.17,45.22Z" style="fill:#fff"/><path d="M57.43,46.07a2.31,2.31,0,0,1-.09.91l.05-1.15C57.41,45.9,57.42,46,57.43,46.07Z" style="fill:#fff"/><path d="M70.25,41.93s.37-1.58,2.68-1.63,6.5.88,7.93,3-1.71,8-3.46,8.07a4.25,4.25,0,0,1-3-1.4s-3.09,1.3-5.21-.48C67.62,48.88,69.33,43.08,70.25,41.93Z" style="fill:#fff"/><path d="M63.6,35.66a1,1,0,0,1,1.2-.28c.83.28,1.52,1.51,1.52,1.51s-1.25-1.32-1.71-1.23A3.31,3.31,0,0,1,63.6,35.66Z" style="fill:#fff"/><path d="M73.7,30.81A1,1,0,0,1,74.88,30c.93.17.81,1.33.81,1.33a2.67,2.67,0,0,0-.88-1C74.27,30.1,73.7,30.81,73.7,30.81Z" style="fill:#fff"/><path d="M79,31.49a1,1,0,0,1,1.18-.78c.93.17.81,1.33.81,1.33a2.68,2.68,0,0,0-.88-1C79.53,30.78,79,31.49,79,31.49Z" style="fill:#fff"/><path d="M81.74,32.86a1,1,0,0,1,1.18-.78c.93.17.81,1.33.81,1.33a2.67,2.67,0,0,0-.88-1C82.31,32.15,81.74,32.86,81.74,32.86Z" style="fill:#fff"/><path d="M84.14,36.26a1,1,0,0,1,1.18-.78c.93.17.81,1.33.81,1.33a2.67,2.67,0,0,0-.88-1C84.7,35.55,84.14,36.26,84.14,36.26Z" style="fill:#fff"/><path d="M63.08,57.53s-5.53,14.43-7.84,14S57.91,59.3,57.91,59.3,54.84,64,53.12,62.87s1-8.23,1-8.23l3-6.41.67-.38a2.46,2.46,0,0,1-.3.46h0a11.15,11.15,0,0,1,3.07,3.21C61.39,53.15,63.08,57.53,63.08,57.53Z" style="fill:#fff"/><path d="M68.34,54.26c-.7.53-2.38,0-2.38,0a6.76,6.76,0,0,0,1-.69l.69-1S69,53.73,68.34,54.26Z" style="fill:#fff"/><path d="M76.55,55.65c-.26.44,0,1,.29,1.92-.91-.51-2.72-1.62-2.14-2.18.41-.4,1.42-.23,2.38.06C76.87,55.43,76.7,55.41,76.55,55.65Z" style="fill:#fff"/><path d="M66.64,51.09S70,53.11,72,53,74.33,52,74.33,52s-.49,1.25,1,1.3A7.64,7.64,0,0,0,77.95,53l.09.54a16.82,16.82,0,0,1-3.34.37,1.12,1.12,0,0,1-1-.81,5.14,5.14,0,0,1-2.12.44,26.8,26.8,0,0,1-3.94-1Z" style="fill:#fff"/><path d="M20.68,54.13s19-1.35,19.12,0,.78,10.9.78,10.9-.66-9.87-3-10.24S20.68,54.13,20.68,54.13Z" style="fill:#fff"/><path d="M50.14,62.26l-9.15-6c.43,4.51.8,12.54.72,14-.27.12,0,1.34,0,1.34l-1.42,3.3s6.11,2.17,6.06,2.11,3.08-2,3.08-2S52.56,74.72,50.14,62.26Z" style="fill:#fff"/><path d="M22,43.75s-2.45,1.27-.24,3,6.87,1.59,8.08,1.43,4.56-1,4.56-1l-1.15-2.4-2.58-.29Z" style="fill:#fff"/><path d="M52.18,74.45s-1.77-5.87-1.4-8.14c-1.38-2.66-.64-4.05-.64-4.05s2.92,4.3,2.92,4.33-.06,4.83,0,4.95S52.18,74.45,52.18,74.45Z" style="fill:#383838"/><polygon points="41.48 57.44 49.35 62.26 49.35 63.03 41.53 58.05 41.48 57.44" style="fill:#383838"/></g></g></g></svg>