<svg xmlns="http://www.w3.org/2000/svg" viewBox="0 0 94.8 91.99"><title>Asset 6</title><g id="Layer_2" data-name="Layer 2"><g id="badges"><g id="_9" data-name="9"><path d="M81.61,62.45c-6.84,12.62-17.7,21.49-34.77,21.18-16.12-.29-26.7-8.45-33.6-20,1.49-1.48,4-3.84,4.77-4,1.17-.19,6.87-3.09,6.87-3.09s4,3.47,7.08,4.12,14.22,2.22,18,1.74,10.2-1.54,13-2.56a83,83,0,0,0,7.8-3.62l4.89,2,3.91,2.52Z" style="fill:#383838"/><polygon points="4.47 56.62 0 52.5 5.99 51.47 8.53 45.95 11.36 51.32 17.4 52.03 13.16 56.39 14.35 62.35 8.9 59.67 3.6 62.64 4.47 56.62" style="fill:#fff"/><polygon points="5.33 56.32 1.76 53.02 6.55 52.19 8.58 47.78 10.85 52.08 15.67 52.64 12.29 56.13 13.24 60.89 8.88 58.75 4.64 61.13 5.33 56.32" style="fill:#383838"/><polygon points="14.24 73.47 9.78 69.35 15.76 68.31 18.3 62.79 21.14 68.17 27.18 68.88 22.94 73.23 24.13 79.19 18.68 76.51 13.38 79.48 14.24 73.47" style="fill:#fff"/><polygon points="15.11 73.16 11.54 69.87 16.32 69.04 18.35 64.63 20.62 68.92 25.45 69.49 22.06 72.97 23.01 77.74 18.65 75.59 14.41 77.97 15.11 73.16" style="fill:#383838"/><polygon points="29.91 85.05 25.45 80.92 31.43 79.89 33.97 74.37 36.81 79.74 42.84 80.45 38.61 84.81 39.8 90.77 34.35 88.09 29.05 91.06 29.91 85.05" style="fill:#fff"/><polygon points="30.77 84.74 27.21 81.44 31.99 80.61 34.02 76.2 36.29 80.5 41.12 81.07 37.73 84.55 38.68 89.31 34.32 87.17 30.09 89.55 30.77 84.74" style="fill:#383838"/><polygon points="53.61 85.97 49.15 81.85 55.14 80.81 57.68 75.29 60.51 80.67 66.55 81.38 62.31 85.73 63.5 91.69 58.05 89.01 52.75 91.99 53.61 85.97" style="fill:#fff"/><polygon points="54.48 85.66 50.91 82.37 55.7 81.54 57.73 77.13 59.99 81.42 64.82 81.99 61.43 85.47 62.38 90.24 58.02 88.1 53.79 90.47 54.48 85.66" style="fill:#383838"/><polygon points="71.25 73.63 66.78 69.51 72.77 68.47 75.31 62.95 78.15 68.33 84.18 69.04 79.95 73.39 81.14 79.35 75.68 76.67 70.38 79.65 71.25 73.63" style="fill:#fff"/><polygon points="72.11 73.32 68.54 70.03 73.33 69.2 75.36 64.79 77.63 69.08 82.45 69.65 79.07 73.14 80.02 77.9 75.66 75.75 71.42 78.13 72.11 73.32" style="fill:#383838"/><polygon points="81.87 56.78 77.4 52.66 83.39 51.63 85.93 46.1 88.77 51.48 94.8 52.19 90.57 56.55 91.76 62.51 86.31 59.83 81 62.8 81.87 56.78" style="fill:#fff"/><polygon points="82.73 56.48 79.16 53.18 83.95 52.35 85.98 47.94 88.25 52.24 93.07 52.8 89.69 56.29 90.64 61.05 86.28 58.91 82.04 61.28 82.73 56.48" style="fill:#383838"/><path d="M24.89,57a43.76,43.76,0,0,0-7.7,3.61,17.22,17.22,0,0,0-3.65,3.5l-.29-.48-.15-.27a17.57,17.57,0,0,1,3.66-3.44,43.38,43.38,0,0,1,7.87-3.68Z" style="fill:#fcfcfc"/><path d="M81.79,62.1c-.06.12-.12.24-.19.36l-.22.41a14.6,14.6,0,0,0-2.85-2.57,43.4,43.4,0,0,0-7.7-3.6l.27-.77A44.4,44.4,0,0,1,79,59.61,14.81,14.81,0,0,1,81.79,62.1Z" style="fill:#fcfcfc"/><path d="M46.42,62.79c-13,0-20.31-4.09-21.79-6.07a1.36,1.36,0,0,1-.32-1.2,2.05,2.05,0,0,1,1.07-1.27,3.68,3.68,0,0,1-.87-2.1,1.73,1.73,0,0,1,1-1.61c-.83-1.08-2.29-3-3.18-4.38a38.3,38.3,0,0,1-2.72-6h-.25a4.83,4.83,0,0,1-2.52-.84c-2.34-1.46-1.46-13.06-.92-14a4.42,4.42,0,0,1,2.65-1.61v-1.5c-.58-.38-3.22-.48-4.66-.53-2.24-.08-3.34-.14-3.85-.53-1.32-1-.73-10.23-.72-10.32.34-4.59,1-5,1.37-5.15.93-.5,3.59-.68,5.59-.68s4.24.13,5,.76.85,1.79,1.16,3.82c.11.69.26,1.67.44,2.37C24.22,8.62,29.26.49,47,0l1.4,0C65.09,0,69.91,8.3,71.52,11.16c.14-.54.27-1.24.37-1.78.38-2,.65-3.26,1.29-3.75.47-.35,1.61-.53,3.39-.53.51,0,5.05,0,6.18,1.16,1.43,1.43.53,13.26.15,14.21-.23.58-.88,1.21-5.64,1.21-1,0-2,0-2.64-.06V23.5a3.86,3.86,0,0,1,2.77,1.65c.79,1.45.67,10.81,0,12.44-.54,1.41-2.24,1.68-3.31,1.7a27.1,27.1,0,0,1-1.5,4.18,34.63,34.63,0,0,1-2.67,4.46A3.86,3.86,0,0,1,71.3,51a3.94,3.94,0,0,1-1,2c1,.4,1.95,1,1.83,2-.18,1.56-10,7.61-25.21,7.72Z" style="fill:#fff"/><path d="M19.27,22v2.17s-2.17.4-2.74,1.4-1.14,12,.69,13.1,2.85.61,2.85.61a43.05,43.05,0,0,0,2.85,6.47c1.26,1.94,3.77,5.14,3.77,5.14S25.2,51,25.2,52.15s1.48,2.5,1.48,2.5A1.72,1.72,0,0,0,25,55.72c-.34,1.14,6.85,6.5,21.91,6.39S71.31,56,71.43,55s-2.51-1.67-2.51-1.67a3.93,3.93,0,0,0,1.71-2.4C70.86,49.44,69,48,69,48a37.11,37.11,0,0,0,3-4.85,27,27,0,0,0,1.6-4.58s2.63.23,3.2-1.26.68-10.61,0-11.87-2.85-1.37-2.85-1.37v-3.2s7.87.46,8.33-.68,1-12.44,0-13.47-7.76-1.26-8.67-.57S72.45,12,71.65,12.46,68.46.13,47,.7,23.15,13.37,23.15,13.37c-1.37.23-1.26-6.28-2.28-7.14s-8.45-.74-9.82,0-1.48,13.64-.57,14.33S19.27,20.56,19.27,22Z" style="fill:#383838"/><path d="M12.42,7.72s6.85-.63,7.19,0,1,10.56,0,11.24-6.28.57-7.19,0S11.16,8.58,12.42,7.72Z" style="fill:#fff"/><path d="M16.17,19.94a10.47,10.47,0,0,1-4-.56c-.82-.51-1-3.86-1-5.8s0-5.61,1-6.28l.11-.07h.13c7.18-.66,7.53,0,7.68.26.31.57,1.28,10.94-.16,11.9A8.62,8.62,0,0,1,16.17,19.94ZM12.64,8.2c-.77,1.08-.73,9.35.09,10.38.7.43,5.74.54,6.6,0,.6-.77.24-9.09-.14-10.5A33.74,33.74,0,0,0,12.64,8.2Z" style="fill:#383838"/><circle cx="15.88" cy="11.6" r="2.14" style="fill:#383838"/><circle cx="48.02" cy="72.99" r="4.21" style="fill:#fff"/><circle cx="48.02" cy="72.99" r="3.4" style="fill:#383838"/><circle cx="15.88" cy="16.64" r="1.37" style="fill:#383838"/><path d="M74.12,8S80.63,7.38,81,8s1,10.56,0,11.24-6,.57-6.83,0S72.93,8.86,74.12,8Z" style="fill:#fff"/><path d="M77.68,20.23a9.57,9.57,0,0,1-3.84-.56c-.78-.51-1-3.83-1-5.77s0-5.63,1-6.3l.11-.08h.13c6.84-.66,7.18,0,7.32.27.3.57,1.21,10.92-.16,11.88A7.89,7.89,0,0,1,77.68,20.23ZM74.35,8.49c-.83,1.2-.54,9.55.09,10.39.66.42,5.41.53,6.22,0,.58-.78.23-9.1-.13-10.52A31.16,31.16,0,0,0,74.35,8.49Z" style="fill:#383838"/><circle cx="77.62" cy="11.89" r="2.14" style="fill:#383838"/><circle cx="77.62" cy="16.92" r="1.37" style="fill:#383838"/><path d="M49.17,53.19h-1c-22.84-.65-24-14.36-24.63-21.73-.06-.66-.11-1.27-.17-1.82a14.63,14.63,0,0,1,3.8-9.4c3.89-4.36,10.2-6.57,18.73-6.57.78,0,1.59,0,2.41.06,9.62.44,16.48,2.93,20.38,7.4a12.25,12.25,0,0,1,3.22,8.44c0,.85.3,10.64-6.14,17.41C61.79,51.1,56.22,53.19,49.17,53.19Z" style="fill:#fff"/><path d="M24,29.55c0-.36,0-16.26,24.22-15.15S71.17,29.55,71.17,29.55s1.2,23.63-23,22.94S24.77,36.31,24,29.55Z" style="fill:#fff"/><path d="M70.46,28.49C70.21,25.57,67.84,16,48.19,15.08c-.79,0-1.58-.05-2.34-.05-16.53,0-20.13,8.71-20.92,12.45l-.16.77-1-.37-.47.64,0-1.32C23.33,27,25,6.75,47.58,6.75h.49c.24,0,22.58,1,23.79,20a9.71,9.71,0,0,1,0,1.75Z" style="fill:#fff"/><path d="M71.14,28.43c-.29-3.35-2.88-13.11-22.92-14-18.8-.86-23,8.53-24,12.94l-.26-.1S25.37,7.15,48.06,7.44c0,0,21.93.79,23.12,19.37A9,9,0,0,1,71.14,28.43Z" style="fill:#383838"/><path d="M28.16,51.86s11.46,4.48,21.12,4.07c11.55-.17,18.49-7.66,19.68-5.75s-9.38,7.63-19.81,7.77S22.24,54.24,28.16,51.86Z" style="fill:#fff"/><path d="M27.54,55.08A54.13,54.13,0,0,0,47.6,58.95c11.22,0,20.33-5.64,21.92-4.33S57.87,61.23,48,61.36,21.92,57.34,27.54,55.08Z" style="fill:#fff"/><path d="M29.38,16.92s7.78-8.59,18.75-8a25.39,25.39,0,0,1,17.13,7.76S56.05,11,46.37,11,29.38,16.92,29.38,16.92Z" style="fill:#fff"/><path d="M74.19,25.66s1.88-.34,2.06,1a49.59,49.59,0,0,1,0,5.21S73.58,26.68,74.19,25.66Z" style="fill:#fff"/><path d="M19.38,25.66s-1.88-.34-2.06,1a49.31,49.31,0,0,0,0,5.21S20,26.68,19.38,25.66Z" style="fill:#fff"/><rect x="24.49" y="11.72" width="1" height="6.72" transform="translate(-3.8 19.86) rotate(-40.53)" style="fill:#fff"/><rect x="66.56" y="13.65" width="6.4" height="1" transform="translate(16.42 61.28) rotate(-52.93)" style="fill:#fff"/><rect x="20.81" y="22.34" width="1" height="5.22" transform="translate(-9.82 35.32) rotate(-67.92)" style="fill:#fff"/><rect x="71.23" y="23.76" width="3.18" height="1" transform="translate(-3.78 29.11) rotate(-22.05)" style="fill:#fff"/><text transform="translate(29.4 32.59)" style="font-size:9px;fill:#383838;font-family:Pacifico-Regular, Pacifico"><tspan style="letter-spacing:-0.0949435763888889em">T</tspan><tspan x="5.42" y="0">ake Me </tspan><tspan x="6.48" y="10.8">There</tspan></text></g></g></g></svg>